<svg width="234" height="350" viewBox="0 0 234 350" fill="none" xmlns="http://www.w3.org/2000/svg">
<path d="M234 267.68H-116V267.855H234V267.68Z" fill="#EBEBEB"/>
<path d="M198.93 278.943H175.746V279.118H198.93V278.943Z" fill="#EBEBEB"/>
<path d="M115.854 280.847H109.771V281.022H115.854V280.847Z" fill="#EBEBEB"/>
<path d="M175.046 272.447H161.613V272.622H175.046V272.447Z" fill="#EBEBEB"/>
<path d="M41.605 276.577H-23.9709V276.752H41.605V276.577Z" fill="#EBEBEB"/>
<path d="M49.9 236.46H-85.263C-86.3218 236.458 -87.3367 236.036 -88.0848 235.287C-88.8328 234.537 -89.253 233.522 -89.253 232.463V42.462C-89.2438 41.4092 -88.8196 40.4026 -88.0725 39.6608C-87.3254 38.9189 -86.3158 38.5018 -85.263 38.5H49.9C50.9601 38.5 51.9767 38.9211 52.7263 39.6707C53.4759 40.4203 53.897 41.4369 53.897 42.497V232.463C53.897 233.523 53.4759 234.54 52.7263 235.289C51.9767 236.039 50.9601 236.46 49.9 236.46ZM-85.263 38.64C-86.2754 38.6419 -87.2458 39.0453 -87.961 39.7619C-88.6763 40.4785 -89.078 41.4496 -89.078 42.462V232.463C-89.078 233.475 -88.6763 234.447 -87.961 235.163C-87.2458 235.88 -86.2754 236.283 -85.263 236.285H49.9C50.9131 236.283 51.8842 235.88 52.6005 235.164C53.3169 234.447 53.7202 233.476 53.722 232.463V42.462C53.7202 41.4489 53.3169 40.4778 52.6005 39.7615C51.8842 39.0451 50.9131 38.6419 49.9 38.64H-85.263Z" fill="#EBEBEB"/>
<path d="M201.317 236.46H66.147C65.0875 236.458 64.072 236.036 63.3228 235.287C62.5736 234.538 62.1519 233.522 62.15 232.463V42.462C62.1611 41.4086 62.5868 40.402 63.335 39.6603C64.0832 38.9187 65.0935 38.5018 66.147 38.5H201.317C202.369 38.5036 203.376 38.9216 204.122 39.6632C204.868 40.4048 205.291 41.4104 205.3 42.462V232.463C205.3 233.521 204.881 234.535 204.134 235.284C203.388 236.034 202.375 236.456 201.317 236.46ZM66.147 38.64C65.1339 38.6419 64.1629 39.0451 63.4465 39.7615C62.7301 40.4778 62.3269 41.4489 62.325 42.462V232.463C62.3269 233.476 62.7301 234.447 63.4465 235.164C64.1629 235.88 65.1339 236.283 66.147 236.285H201.317C202.33 236.283 203.301 235.88 204.018 235.164C204.734 234.447 205.137 233.476 205.139 232.463V42.462C205.137 41.4489 204.734 40.4778 204.018 39.7615C203.301 39.0451 202.33 38.6419 201.317 38.64H66.147Z" fill="#EBEBEB"/>
<path d="M117.863 266C117.354 266.002 116.866 266.205 116.506 266.566C116.147 266.927 115.945 267.416 115.945 267.925H135.237C135.237 267.414 135.034 266.925 134.673 266.564C134.312 266.203 133.823 266 133.312 266H127.908V233.1H132.108V189H127.908V175.7H1.34804V189H-1.54996V233.1H1.34804V266H-4.05596C-4.5665 266 -5.05612 266.203 -5.41713 266.564C-5.77814 266.925 -5.98096 267.414 -5.98096 267.925H13.311C13.3111 267.417 13.1102 266.929 12.7522 266.569C12.3942 266.208 11.9082 266.004 11.4 266H5.98905V233.1H123.274V266H117.863ZM5.98204 189V180.18H123.274V189H5.98204Z" fill="#E0E0E0"/>
<path d="M183.257 116.655H151.946V159.327H165.932V267.925H169.264V159.327H183.257V116.655Z" fill="#F0F0F0"/>
<path d="M11.155 66.43V102.011H-57.865V66.43H-53.609V55.832H-51.348V66.43H4.63801V55.832H6.89902V66.43H11.155Z" fill="#F0F0F0"/>
<path d="M115.126 66.43V102.011H46.106V66.43H50.362V55.832H52.623V66.43H108.602V55.832H110.87V66.43H115.126Z" fill="#F0F0F0"/>
<path d="M57.6 266C57.0894 266 56.5998 266.203 56.2388 266.564C55.8778 266.925 55.675 267.414 55.675 267.925H74.96C74.96 267.416 74.7581 266.927 74.3986 266.566C74.0392 266.205 73.5513 266.002 73.042 266H67.631V233.1H71.831V189H67.631V175.7H-58.929V189H-61.827V233.1H-58.929V266H-64.333C-64.5855 266 -64.8355 266.05 -65.0686 266.147C-65.3018 266.243 -65.5135 266.385 -65.6917 266.564C-65.8699 266.743 -66.0111 266.955 -66.107 267.189C-66.203 267.422 -66.2519 267.673 -66.251 267.925H-46.959C-46.959 267.414 -47.1618 266.925 -47.5228 266.564C-47.8838 266.203 -48.3735 266 -48.884 266H-54.288V233.1H62.997V266H57.6ZM-54.288 189V180.18H62.997V189H-54.288Z" fill="#EBEBEB"/>
<path d="M59 299.292C133.958 299.292 194.723 295.744 194.723 291.368C194.723 286.992 133.958 283.444 59 283.444C-15.9578 283.444 -76.723 286.992 -76.723 291.368C-76.723 295.744 -15.9578 299.292 59 299.292Z" fill="#F5F5F5"/>
<path d="M170.209 273.098C170.209 273.098 171.196 265.839 175.844 265.041C180.492 264.243 179.085 260.736 180.296 259.378C181.507 258.02 184.664 262.031 181.962 265.916C179.26 269.801 181.465 268.576 180.296 272.216C179.127 275.856 169.782 279.118 170.209 273.098Z" fill="#263238"/>
<path d="M170.398 278.103C170.359 278.113 170.318 278.113 170.279 278.103C170.244 278.087 170.213 278.065 170.187 278.037C170.161 278.009 170.141 277.976 170.128 277.94C170.115 277.904 170.109 277.866 170.111 277.828C170.113 277.79 170.123 277.752 170.139 277.718C170.174 277.648 173.639 270.249 171.805 258.419C171.221 255.015 170.282 251.681 169.005 248.472C166.8 242.466 164.896 237.272 169.061 228.207C170.349 225.407 171.665 222.789 172.932 220.262C177.629 210.938 181.332 203.567 178.637 196.245C178.622 196.209 178.615 196.171 178.616 196.132C178.616 196.094 178.624 196.055 178.64 196.02C178.656 195.985 178.678 195.953 178.707 195.926C178.735 195.9 178.768 195.88 178.805 195.866C178.841 195.853 178.88 195.847 178.918 195.849C178.957 195.852 178.994 195.861 179.029 195.879C179.064 195.896 179.095 195.919 179.12 195.949C179.145 195.978 179.164 196.012 179.176 196.049C181.976 203.602 178.21 211.071 173.45 220.549C172.183 223.069 170.867 225.673 169.579 228.473C165.519 237.321 167.297 242.165 169.544 248.297C170.838 251.524 171.795 254.876 172.4 258.3C174.262 270.326 170.72 277.865 170.685 277.942C170.66 277.995 170.618 278.039 170.567 278.068C170.516 278.097 170.457 278.109 170.398 278.103Z" fill="#263238"/>
<path d="M173.1 276.367C173.1 276.367 176.103 271.838 171.77 269.514C167.437 267.19 166.569 269.059 163.888 267.414C161.207 265.769 159.177 261.688 158.722 264.278C158.267 266.868 161.361 268.352 160.269 269.535C159.177 270.718 167.535 278.404 173.1 276.367Z" fill="#263238"/>
<path d="M180.163 199.899C180.163 199.899 183.089 191.009 176.439 190.799C169.789 190.589 177.118 198.947 180.163 199.899Z" fill="#263238"/>
<path d="M174.388 206.731C174.388 206.731 172.407 198.646 167.682 200.354C162.957 202.062 169.677 206.878 174.388 206.731Z" fill="#263238"/>
<path d="M182.396 207.431C182.396 207.431 181.696 200.984 186.694 200.851C191.692 200.718 189.473 206.388 182.396 207.431Z" fill="#263238"/>
<path d="M179.064 220.591C179.064 220.591 185.784 214.592 188.206 219.058C190.628 223.524 183.131 224.448 179.064 220.591Z" fill="#263238"/>
<path d="M167.164 219.527C167.164 219.527 165.904 209.573 160.472 212.695C155.04 215.817 162.439 220.5 167.164 219.527Z" fill="#263238"/>
<path d="M162.39 233.8C162.39 233.8 166.394 223.741 158.946 224.875C151.498 226.009 157.133 231.336 162.39 233.8Z" fill="#263238"/>
<path d="M173.8 237.363C173.8 237.363 180.1 229.957 184.895 232.302C189.69 234.647 185.798 242.025 173.8 237.363Z" fill="#263238"/>
<path d="M168.109 253.785C168.109 253.785 162.747 241.885 157.98 245.896C153.213 249.907 161.025 255.906 168.109 253.785Z" fill="#263238"/>
<path d="M175.9 253.092C175.9 253.092 174.5 243.859 179.792 244.601C185.084 245.343 183.705 250.992 175.9 253.092Z" fill="#263238"/>
<g opacity="0.2">
<path d="M180.163 199.899C180.163 199.899 183.089 191.009 176.439 190.799C169.789 190.589 177.118 198.947 180.163 199.899Z" fill="white"/>
<path d="M174.388 206.731C174.388 206.731 172.407 198.646 167.682 200.354C162.957 202.062 169.677 206.878 174.388 206.731Z" fill="white"/>
<path d="M182.396 207.431C182.396 207.431 181.696 200.984 186.694 200.851C191.692 200.718 189.473 206.388 182.396 207.431Z" fill="white"/>
<path d="M179.064 220.591C179.064 220.591 185.784 214.592 188.206 219.058C190.628 223.524 183.131 224.448 179.064 220.591Z" fill="white"/>
<path d="M167.164 219.527C167.164 219.527 165.904 209.573 160.472 212.695C155.04 215.817 162.439 220.5 167.164 219.527Z" fill="white"/>
<path d="M162.39 233.8C162.39 233.8 166.394 223.741 158.946 224.875C151.498 226.009 157.133 231.336 162.39 233.8Z" fill="white"/>
<path d="M173.8 237.363C173.8 237.363 180.1 229.957 184.895 232.302C189.69 234.647 185.798 242.025 173.8 237.363Z" fill="white"/>
<path d="M168.109 253.785C168.109 253.785 162.747 241.885 157.98 245.896C153.213 249.907 161.025 255.906 168.109 253.785Z" fill="white"/>
<path d="M175.9 253.092C175.9 253.092 174.5 243.859 179.792 244.601C185.084 245.343 183.705 250.992 175.9 253.092Z" fill="white"/>
</g>
<path d="M177.3 212.051H177.216C177.178 212.04 177.143 212.021 177.113 211.996C177.083 211.971 177.058 211.939 177.041 211.904C177.041 211.855 174.465 206.969 172.54 205.814C172.501 205.798 172.466 205.773 172.437 205.742C172.408 205.711 172.386 205.674 172.373 205.634C172.36 205.594 172.355 205.551 172.36 205.509C172.365 205.467 172.379 205.426 172.401 205.39C172.423 205.354 172.452 205.322 172.487 205.299C172.522 205.275 172.562 205.259 172.604 205.252C172.646 205.245 172.689 205.247 172.73 205.259C172.771 205.27 172.809 205.29 172.841 205.317C174.654 206.409 176.838 210.308 177.412 211.372C181.094 209.202 183.81 205.212 183.838 205.17C183.859 205.139 183.886 205.112 183.918 205.091C183.949 205.07 183.985 205.056 184.022 205.049C184.059 205.042 184.097 205.042 184.134 205.049C184.171 205.057 184.206 205.072 184.237 205.093C184.268 205.114 184.295 205.141 184.316 205.173C184.337 205.204 184.351 205.239 184.358 205.277C184.365 205.314 184.365 205.352 184.358 205.389C184.35 205.426 184.335 205.461 184.314 205.492C184.195 205.667 181.367 209.825 177.44 212.023C177.397 212.046 177.348 212.055 177.3 212.051Z" fill="#263238"/>
<path d="M171.189 224.399H171.133C171.093 224.393 171.054 224.377 171.02 224.354C170.986 224.331 170.958 224.301 170.937 224.266C170.937 224.21 167.731 218.876 163.65 216.475C163.584 216.437 163.536 216.374 163.516 216.301C163.497 216.227 163.507 216.149 163.545 216.083C163.584 216.017 163.648 215.968 163.723 215.949C163.798 215.929 163.877 215.94 163.944 215.978C167.661 218.169 170.552 222.551 171.273 223.678C177.006 219.478 184.16 219.695 184.23 219.688C184.268 219.689 184.306 219.697 184.341 219.713C184.376 219.729 184.407 219.751 184.434 219.779C184.46 219.808 184.48 219.84 184.493 219.876C184.506 219.912 184.512 219.951 184.51 219.989C184.509 220.027 184.501 220.064 184.486 220.098C184.47 220.133 184.448 220.164 184.421 220.19C184.394 220.216 184.362 220.236 184.326 220.25C184.291 220.263 184.254 220.27 184.216 220.269C184.146 220.269 176.971 220.094 171.364 224.329C171.314 224.37 171.253 224.395 171.189 224.399Z" fill="#263238"/>
<path d="M167.304 240.723C167.238 240.723 167.174 240.7 167.122 240.66C163.125 237.447 160.052 229.46 159.926 229.117C159.897 229.041 159.9 228.956 159.933 228.882C159.967 228.808 160.028 228.75 160.105 228.721C160.181 228.693 160.265 228.695 160.339 228.729C160.413 228.762 160.471 228.824 160.5 228.9C160.5 228.977 163.559 236.873 167.367 240.1C168.627 239.4 176.012 235.361 181.668 235.249C181.743 235.249 181.815 235.278 181.869 235.331C181.922 235.383 181.953 235.454 181.955 235.529C181.957 235.567 181.951 235.605 181.938 235.64C181.925 235.676 181.904 235.709 181.878 235.736C181.852 235.764 181.82 235.785 181.786 235.8C181.751 235.815 181.713 235.823 181.675 235.823C175.753 235.942 167.563 240.646 167.479 240.723C167.422 240.742 167.361 240.742 167.304 240.723Z" fill="#263238"/>
<path d="M172.043 257.6C171.998 257.6 171.953 257.59 171.913 257.569C171.873 257.548 171.838 257.518 171.812 257.481C169.515 254.705 166.426 252.696 162.957 251.72C162.884 251.699 162.822 251.649 162.785 251.582C162.748 251.515 162.74 251.436 162.761 251.363C162.782 251.29 162.832 251.228 162.899 251.191C162.966 251.154 163.045 251.146 163.118 251.167C166.619 252.143 169.75 254.139 172.113 256.9C175.032 254.975 178.882 247.513 178.917 247.436C178.958 247.378 179.018 247.337 179.087 247.32C179.156 247.303 179.229 247.311 179.292 247.344C179.355 247.376 179.404 247.43 179.43 247.496C179.457 247.562 179.458 247.635 179.435 247.702C179.267 248.031 175.277 255.766 172.19 257.502C172.152 257.549 172.101 257.583 172.043 257.6Z" fill="#263238"/>
<path d="M172.624 275.282C172.624 275.282 175.193 271.187 178.105 270.606C181.017 270.025 182.263 266.672 183.334 268.688C184.405 270.704 181.451 277.375 172.624 275.282Z" fill="#263238"/>
<path d="M185.98 291.368H157.875L155.992 274.029H187.856L185.98 291.368Z" fill="#F83758"/>
<path d="M188.514 277.312H155.334L154.914 273.644H188.941L188.514 277.312Z" fill="#F83758"/>
<path opacity="0.3" d="M188.514 277.312H155.334L154.914 273.644H188.941L188.514 277.312Z" fill="white"/>
<path d="M114.244 46.844H82.94C81.5272 46.844 80.1281 47.1223 78.8227 47.663C77.5174 48.2037 76.3313 48.9962 75.3323 49.9952C74.3332 50.9943 73.5407 52.1804 73 53.4857C72.4593 54.7911 72.181 56.1901 72.181 57.603V88.025C72.181 89.4379 72.4593 90.837 73 92.1423C73.5407 93.4476 74.3332 94.6337 75.3323 95.6328C76.3313 96.6318 77.5174 97.4243 78.8227 97.965C80.1281 98.5057 81.5272 98.784 82.94 98.784H85.096L85.292 106.771L92.334 98.784H114.244C115.657 98.784 117.056 98.5057 118.361 97.965C119.667 97.4243 120.853 96.6318 121.852 95.6328C122.851 94.6337 123.643 93.4476 124.184 92.1423C124.725 90.837 125.003 89.4379 125.003 88.025V57.603C125.003 54.7495 123.87 52.0129 121.852 49.9952C119.834 47.9775 117.098 46.844 114.244 46.844Z" fill="#F83758"/>
<path opacity="0.7" d="M110.009 87.395H87.175L88.8691 66.892L88.022 62.818H109.162L108.315 66.892L110.009 87.395Z" fill="white"/>
<path d="M104.857 64.169C104.675 59.969 101.938 56.658 98.5921 56.658C95.2461 56.658 92.5021 59.99 92.3271 64.169C92.2576 64.2152 92.2003 64.2775 92.1601 64.3507C92.1199 64.4238 92.0979 64.5056 92.0961 64.589C92.0961 64.7301 92.1521 64.8654 92.2519 64.9652C92.3517 65.065 92.487 65.121 92.6281 65.121C92.7692 65.121 92.9045 65.065 93.0042 64.9652C93.104 64.8654 93.1601 64.7301 93.1601 64.589C93.1582 64.5115 93.139 64.4355 93.1039 64.3664C93.0688 64.2974 93.0186 64.2371 92.9571 64.19C93.1251 60.347 95.5821 57.288 98.5921 57.288C101.602 57.288 104.059 60.347 104.192 64.19C104.133 64.2387 104.085 64.2995 104.051 64.3684C104.017 64.4372 103.998 64.5124 103.996 64.589C103.996 64.7301 104.052 64.8654 104.152 64.9652C104.252 65.065 104.387 65.121 104.528 65.121C104.669 65.121 104.804 65.065 104.904 64.9652C105.004 64.8654 105.06 64.7301 105.06 64.589C105.061 64.508 105.044 64.4278 105.009 64.3549C104.973 64.2819 104.921 64.2183 104.857 64.169Z" fill="white"/>
<path d="M117.709 75.11C117.709 76.248 117.372 77.3605 116.739 78.3068C116.107 79.253 115.208 79.9905 114.157 80.426C113.106 80.8615 111.949 80.9755 110.832 80.7534C109.716 80.5314 108.691 79.9834 107.886 79.1787C107.082 78.374 106.534 77.3487 106.312 76.2325C106.09 75.1164 106.204 73.9594 106.639 72.908C107.075 71.8566 107.812 70.958 108.758 70.3257C109.705 69.6935 110.817 69.356 111.955 69.356C113.481 69.356 114.945 69.9622 116.024 71.0413C117.103 72.1204 117.709 73.5839 117.709 75.11Z" fill="#263238"/>
<path d="M111.346 77.385C111.251 77.3848 111.161 77.347 111.094 77.28L108.434 74.62C108.37 74.5546 108.334 74.4666 108.334 74.375C108.334 74.2834 108.37 74.1954 108.434 74.13C108.467 74.0972 108.505 74.0712 108.548 74.0534C108.591 74.0356 108.636 74.0265 108.683 74.0265C108.729 74.0265 108.774 74.0356 108.817 74.0534C108.86 74.0712 108.898 74.0972 108.931 74.13L111.346 76.538L114.979 72.933C115.044 72.8689 115.132 72.833 115.224 72.833C115.316 72.833 115.404 72.8689 115.469 72.933C115.502 72.9655 115.528 73.0042 115.546 73.0469C115.563 73.0896 115.573 73.1353 115.573 73.1815C115.573 73.2277 115.563 73.2735 115.546 73.3161C115.528 73.3588 115.502 73.3975 115.469 73.43L111.591 77.28C111.526 77.3459 111.438 77.3837 111.346 77.385Z" fill="white"/>
<path d="M82.2261 122.654L79.3351 133.791L84.5081 134.407L85.7471 124.243L82.2261 122.654Z" fill="#E4897B"/>
<path d="M42.557 284.536L43.383 285.236L44.482 284.417L46.162 287.973L53.092 293.86C53.092 293.86 55.136 293.692 52.588 290.003C52.4622 289.824 52.3566 289.631 52.273 289.429C51.216 287.105 51.076 282.191 51.076 282.191L47.275 278.957C47.0097 279.035 46.7501 279.13 46.498 279.244C45.371 279.727 43.159 280.875 42.557 284.536Z" fill="#F83758"/>
<path opacity="0.2" d="M42.557 284.536L43.383 285.236L44.482 284.417L46.162 287.973L53.092 293.86C53.092 293.86 55.136 293.692 52.588 290.003C52.4622 289.824 52.3566 289.631 52.273 289.429C51.216 287.105 51.076 282.191 51.076 282.191L47.275 278.957C47.0097 279.035 46.7501 279.13 46.498 279.244C45.371 279.727 43.159 280.875 42.557 284.536Z" fill="black"/>
<path d="M46.498 279.244C47.478 279.111 47.674 283.514 48.64 285.775C49.501 287.784 50.901 289.541 52.287 289.422C51.23 287.098 51.5241 281.141 51.5241 281.141L48.465 278.544C48.465 278.544 46.981 279.034 46.498 279.244Z" fill="#E4897B"/>
<path opacity="0.2" d="M46.498 279.244C47.478 279.111 47.674 283.514 48.64 285.775C49.501 287.784 50.901 289.541 52.287 289.422C51.23 287.098 51.5241 281.141 51.5241 281.141L48.465 278.544C48.465 278.544 46.981 279.034 46.498 279.244Z" fill="black"/>
<path d="M42.354 295.197H43.439L43.74 293.86L47.331 295.477H56.431C56.431 295.477 57.873 294.021 53.547 292.866C53.3334 292.81 53.1267 292.73 52.931 292.628C50.621 291.55 47.331 287.889 47.331 287.889H42.34C42.1883 288.114 42.0504 288.348 41.927 288.589C41.381 289.709 40.443 292.012 42.354 295.197Z" fill="#F83758"/>
<path d="M41.927 288.61C42.585 287.875 45.588 291.102 47.779 292.201C49.746 293.181 51.944 293.601 52.924 292.614C50.614 291.536 46.981 286.804 46.981 286.804H42.97C42.97 286.804 42.2 288.141 41.927 288.61Z" fill="#E4897B"/>
<path d="M84.6411 125.3L92.1941 123.536L88.4421 118.461C88.4421 118.461 81.5121 119.924 82.2261 122.661L84.6411 125.3Z" fill="#E4897B"/>
<path d="M86.125 125.741C86.125 125.741 85.838 151.263 80.168 151.263C77.025 151.263 73.462 149.219 70.431 146.902C67.8873 144.924 65.5259 142.722 63.375 140.322V140.238L61.422 128.387C67.022 128.247 76.738 141.029 76.738 141.029L81.4 124.838L86.125 125.741Z" fill="#F83758"/>
<path opacity="0.2" d="M70.431 146.902C67.8873 144.924 65.5259 142.722 63.375 140.322V140.238L65.195 136.171C68.2368 138.955 70.1082 142.791 70.431 146.902Z" fill="black"/>
<path d="M38.504 100.1C38.504 100.1 40.275 97.034 45.35 96.516C50.425 95.998 57.152 98.7 58.181 106.449C59.21 114.198 61.408 118.447 61.408 118.447C61.408 118.447 45.063 122.717 40.471 121.177C35.879 119.637 28.774 102.305 38.504 100.1Z" fill="#263238"/>
<path d="M72.3981 235.823C70.1091 240.387 67.8061 245.301 65.5941 250.208C62.6891 256.69 59.9591 263.179 57.6351 268.989C55.9761 273.133 53.8131 278.362 52.6791 281.526C50.2233 281.332 47.8958 280.35 46.0431 278.726C46.8971 273.035 49.1721 258.251 53.4701 245.245C55.7241 238.399 58.5451 231.644 62.0171 226.149C45.7841 184.296 48.9271 168.315 48.9271 168.315L66.1471 166.992C66.1471 166.992 69.2481 182.7 71.8521 198.8C73.2101 207.242 74.4281 215.796 74.9881 222.271V222.334C75.386 226.983 74.4896 231.652 72.3981 235.823Z" fill="#263238"/>
<path opacity="0.2" d="M57.4671 213.675C55.0591 206.549 53.2671 200.375 52.0071 195.062C52.9731 190.862 54.4291 187.222 56.4871 185.003C56.4871 185.003 59.9171 196.546 57.4671 213.675Z" fill="black"/>
<path opacity="0.2" d="M57.6351 268.989C55.9761 273.133 53.8131 278.362 52.6791 281.526C50.2233 281.332 47.8958 280.35 46.0431 278.726C46.8971 273.035 49.1721 258.251 53.4701 245.245C54.9471 252.196 56.6411 261.009 57.6351 268.989Z" fill="black"/>
<path d="M59.203 165.298C59.203 165.298 54.184 204.155 51.307 222.852C48.283 242.487 47.898 274.001 48.654 286.839C47.555 287.476 43.544 288.239 41.381 287.574C41.381 287.574 31.14 247.856 37.937 224.791C31.749 179.354 40.737 168.224 40.737 168.224L59.203 165.298Z" fill="#263238"/>
<path opacity="0.7" d="M57.53 140.833C52.4825 136.283 46.8857 132.381 40.87 129.22C41.416 129.157 41.983 129.101 42.543 129.052C46.3625 128.648 50.2061 128.519 54.044 128.667C54.996 128.723 55.976 128.8 56.935 128.877C59.315 134.337 57.53 140.833 57.53 140.833Z" fill="white"/>
<path d="M40.8701 165.298L66.0001 163.604C66.0001 163.604 66.7491 171.143 66.5741 171.038C66.3991 170.933 39.701 171.976 39.701 171.976L40.8701 165.298Z" fill="#263238"/>
<path d="M41.101 165.711L65.944 164.339V166.698L40.87 168.028L41.101 165.711Z" fill="black"/>
<path d="M55.0801 167.692C54.9015 167.692 54.7295 167.624 54.5994 167.502C54.4692 167.38 54.3908 167.212 54.3801 167.034L54.2681 165.634C54.2595 165.54 54.2698 165.446 54.2985 165.356C54.3272 165.267 54.3736 165.184 54.435 165.113C54.4964 165.042 54.5716 164.983 54.6559 164.942C54.7403 164.9 54.8322 164.876 54.9261 164.871L57.6491 164.654C57.7472 164.646 57.8459 164.658 57.9387 164.691C58.0316 164.724 58.1166 164.775 58.1881 164.843C58.2615 164.909 58.32 164.99 58.3598 165.081C58.3996 165.171 58.4198 165.269 58.4191 165.368V166.824C58.4191 167.01 58.3453 167.188 58.214 167.319C58.0828 167.45 57.9047 167.524 57.7191 167.524L55.1081 167.664L55.0801 167.692ZM57.6981 165.151L54.9751 165.361C54.9438 165.364 54.9133 165.372 54.8854 165.387C54.8575 165.401 54.8328 165.421 54.8126 165.445C54.7925 165.469 54.7773 165.497 54.7679 165.527C54.7585 165.557 54.7552 165.589 54.7581 165.62L54.8631 167.02C54.87 167.082 54.8996 167.139 54.9461 167.18C54.9926 167.222 55.0528 167.244 55.1151 167.244L57.7261 167.104C57.788 167.102 57.8467 167.076 57.8899 167.032C57.933 166.987 57.9571 166.928 57.9571 166.866V165.41C57.9575 165.377 57.9508 165.344 57.9375 165.314C57.9242 165.284 57.9047 165.257 57.8801 165.235C57.858 165.208 57.8302 165.187 57.7987 165.172C57.7671 165.158 57.7328 165.15 57.6981 165.151Z" fill="white"/>
<path d="M40.87 165.298C40.345 159.404 38.238 148.603 34.605 137.256C33.422 133.567 35.424 129.402 35.424 129.402C35.424 129.402 40.373 129.276 40.87 129.22C41.367 129.164 41.983 129.101 42.543 129.052C46.3625 128.648 50.2061 128.519 54.044 128.667C54.996 128.723 55.976 128.8 56.935 128.877C57.243 128.877 60.722 128.94 61.023 128.975C61.023 128.975 65.839 134.477 66.133 138.936C66.4865 142.368 66.6174 145.819 66.525 149.268C66.525 153.314 65.937 164.339 65.937 164.339C65.167 168.602 56.48 164.703 56.48 164.703C43.943 170.912 40.87 165.298 40.87 165.298Z" fill="#F83758"/>
<path opacity="0.8" d="M40.87 165.298C40.345 159.404 38.238 148.603 34.605 137.256C33.422 133.567 35.424 129.402 35.424 129.402C35.424 129.402 40.373 129.276 40.87 129.22C41.367 129.164 41.983 129.101 42.543 129.052C46.3625 128.648 50.2061 128.519 54.044 128.667C54.996 128.723 55.976 128.8 56.935 128.877C57.243 128.877 60.722 128.94 61.023 128.975C61.023 128.975 65.839 134.477 66.133 138.936C66.4865 142.368 66.6174 145.819 66.525 149.268C66.525 153.314 65.937 164.339 65.937 164.339C65.167 168.602 56.48 164.703 56.48 164.703C43.943 170.912 40.87 165.298 40.87 165.298Z" fill="white"/>
<path opacity="0.2" d="M54.9261 139.825C54.9261 139.903 54.9031 139.978 54.86 140.043C54.817 140.107 54.7557 140.157 54.6841 140.187C54.6125 140.217 54.5337 140.225 54.4576 140.209C54.3816 140.194 54.3117 140.157 54.2569 140.102C54.2021 140.047 54.1647 139.978 54.1496 139.901C54.1345 139.825 54.1423 139.747 54.1719 139.675C54.2016 139.603 54.2518 139.542 54.3163 139.499C54.3808 139.456 54.4566 139.433 54.5341 139.433C54.6381 139.433 54.7378 139.474 54.8113 139.548C54.8848 139.621 54.9261 139.721 54.9261 139.825Z" fill="black"/>
<path opacity="0.2" d="M56.3541 148.106C56.3541 148.184 56.3311 148.259 56.288 148.324C56.2449 148.388 56.1837 148.438 56.1121 148.468C56.0404 148.498 55.9616 148.506 55.8856 148.49C55.8096 148.475 55.7397 148.438 55.6849 148.383C55.6301 148.328 55.5927 148.259 55.5776 148.182C55.5625 148.106 55.5702 148.028 55.5999 147.956C55.6296 147.884 55.6798 147.823 55.7443 147.78C55.8087 147.737 55.8845 147.714 55.9621 147.714C56.066 147.714 56.1657 147.755 56.2393 147.829C56.3128 147.902 56.3541 148.002 56.3541 148.106Z" fill="black"/>
<path opacity="0.2" d="M56.354 156.394C56.5705 156.394 56.746 156.218 56.746 156.002C56.746 155.786 56.5705 155.61 56.354 155.61C56.1375 155.61 55.962 155.786 55.962 156.002C55.962 156.218 56.1375 156.394 56.354 156.394Z" fill="black"/>
<path opacity="0.2" d="M56.746 163.996C56.9625 163.996 57.138 163.82 57.138 163.604C57.138 163.388 56.9625 163.212 56.746 163.212C56.5295 163.212 56.354 163.388 56.354 163.604C56.354 163.82 56.5295 163.996 56.746 163.996Z" fill="black"/>
<path d="M42.9 182.546L34.2201 180.978L39.2741 162.309C39.2741 162.309 38 157.675 36.6 152.362C35.9 149.772 35.2 147.028 34.577 144.585C33.8862 142.158 33.3393 139.692 32.939 137.2C32.778 134.225 35.431 129.409 35.431 129.409L39.288 128.779C39.288 128.779 47.408 134.701 47.779 146.783C48.15 158.865 42.9 182.546 42.9 182.546Z" fill="#F83758"/>
<path d="M58.8881 128.387C58.8881 128.387 61.4431 137.9 62.6961 144.9C63.9491 151.9 67.4001 181.706 67.4001 181.706L69.2831 180.768L66.7001 162.981C66.7001 162.981 67.6451 142.366 66.9101 138.131C66.1751 133.896 61.4361 128.387 61.4361 128.387H58.8881Z" fill="#F83758"/>
<path d="M55.535 130.291C56.746 134.708 54.135 138.621 54.135 138.621C46.386 136.171 43.18 129.031 43.18 129.031C45.497 126.483 44.034 119.742 42.907 116.074L46.008 118.398L50.628 121.849C50.541 122.8 50.6167 123.759 50.852 124.684C51.202 126.154 51.825 127.533 52.518 127.827L55.535 130.291Z" fill="#E4897B"/>
<path opacity="0.2" d="M50.852 124.684C49.011 124.271 46.596 122.367 46.211 120.484C46.0621 119.794 45.994 119.089 46.008 118.384L50.628 121.835C50.5394 122.79 50.6152 123.754 50.852 124.684Z" fill="black"/>
<path d="M39.498 108.752C40.821 114.688 41.255 117.229 44.769 119.952C50.047 124.089 57.012 121.569 57.481 115.451C57.901 109.949 55.661 101.164 49.431 99.4C48.1048 98.9733 46.6884 98.91 45.3294 99.2168C43.9704 99.5235 42.7185 100.189 41.7041 101.144C40.6898 102.099 39.95 103.309 39.562 104.647C39.174 105.985 39.1519 107.402 39.498 108.752Z" fill="#E4897B"/>
<path d="M47.163 109.487C47.254 109.991 47.59 110.369 47.912 110.334C48.234 110.299 48.423 109.865 48.332 109.361C48.241 108.857 47.905 108.479 47.583 108.514C47.261 108.549 47.1 108.983 47.163 109.487Z" fill="#263238"/>
<path d="M53.4 108.612C53.491 109.116 53.827 109.494 54.149 109.466C54.471 109.438 54.66 108.99 54.576 108.486C54.492 107.982 54.149 107.604 53.827 107.639C53.505 107.674 53.344 108.108 53.4 108.612Z" fill="#263238"/>
<path d="M53.7151 107.681L54.8421 107.205C54.8421 107.205 54.4011 108.22 53.7151 107.681Z" fill="#263238"/>
<path d="M51.7061 109.9C52.3524 111.004 53.1381 112.021 54.0441 112.924C53.8185 113.134 53.5483 113.29 53.2537 113.381C52.9591 113.472 52.6478 113.495 52.3431 113.449L51.7061 109.9Z" fill="#DE5753"/>
<path d="M45.7 106.435C45.7391 106.435 45.7776 106.426 45.8128 106.409C45.8479 106.392 45.8788 106.368 45.903 106.337C46.1295 106.054 46.4229 105.833 46.7565 105.692C47.0902 105.552 47.4537 105.497 47.814 105.532C47.8514 105.538 47.8895 105.536 47.9262 105.527C47.9629 105.518 47.9973 105.501 48.0274 105.478C48.0575 105.455 48.0826 105.427 48.1013 105.394C48.12 105.361 48.1318 105.325 48.136 105.287C48.1406 105.206 48.1153 105.127 48.065 105.063C48.0146 105 47.9427 104.958 47.863 104.944C47.4084 104.894 46.9486 104.959 46.5255 105.133C46.1024 105.306 45.7296 105.583 45.441 105.938C45.3941 106.001 45.373 106.08 45.3821 106.158C45.3912 106.236 45.4298 106.307 45.49 106.358C45.5497 106.406 45.6235 106.433 45.7 106.435Z" fill="#263238"/>
<path d="M55.4161 105C55.4907 105.01 55.5661 104.989 55.6261 104.944C55.654 104.917 55.6762 104.884 55.6914 104.848C55.7065 104.812 55.7143 104.773 55.7143 104.734C55.7143 104.695 55.7065 104.656 55.6914 104.62C55.6762 104.584 55.654 104.551 55.6261 104.524C55.3334 104.144 54.9567 103.837 54.5256 103.627C54.0945 103.417 53.6206 103.309 53.1411 103.313C53.1032 103.315 53.0662 103.326 53.0326 103.343C52.9989 103.361 52.9693 103.385 52.9456 103.415C52.9219 103.445 52.9046 103.479 52.8949 103.515C52.8851 103.552 52.8832 103.59 52.8891 103.628C52.9011 103.707 52.9422 103.779 53.0044 103.829C53.0665 103.88 53.1452 103.905 53.2251 103.901C53.605 103.908 53.9785 104 54.3178 104.171C54.6572 104.342 54.9536 104.587 55.1851 104.888C55.2129 104.923 55.2481 104.95 55.288 104.97C55.328 104.989 55.3717 105 55.4161 105Z" fill="#263238"/>
<path d="M47.4501 108.556L48.5701 108.08C48.5701 108.08 48.1291 109.088 47.4501 108.556Z" fill="#263238"/>
<path d="M42.5431 112.189C42.5431 112.189 45.4621 107.94 43.2431 101.647C43.2431 101.647 49.8441 98.441 54.8491 103.327C54.8491 103.327 50.1941 95.172 40.4781 99.078C30.7621 102.984 38.0911 112.315 39.2951 113.078C40.4991 113.841 42.5431 112.189 42.5431 112.189Z" fill="#263238"/>
<path d="M38.308 113.883C39.0886 114.916 40.2462 115.598 41.528 115.78C43.166 115.976 43.628 114.317 42.928 112.791C42.228 111.391 40.583 109.669 39.078 110.18C37.573 110.691 37.3 112.581 38.308 113.883Z" fill="#E4897B"/>
<path d="M52.7001 114.856C52.3802 115.62 52.1159 116.406 51.9091 117.208C51.7621 117.208 51.6151 117.208 51.4751 117.166C49.5011 116.97 48.6751 116.221 48.3111 115.458C48.1535 115.082 48.0864 114.675 48.1151 114.268C48.1237 114.03 48.1661 113.794 48.2411 113.568C49.2281 114.303 51.0411 114.632 52.0281 114.765C52.4271 114.842 52.7001 114.856 52.7001 114.856Z" fill="#263238"/>
<path d="M52 114.8L51.748 115.5C49.893 115.304 48.612 114.919 48.087 114.303C48.0956 114.065 48.1381 113.829 48.213 113.603C49.2 114.317 51.034 114.646 52 114.8Z" fill="white"/>
<path d="M51.461 117.166C49.487 116.97 48.661 116.221 48.297 115.458C49.0444 115.549 49.7697 115.771 50.439 116.116C50.881 116.351 51.2384 116.718 51.461 117.166Z" fill="#DE5753"/>
<path opacity="0.2" d="M37.713 150.92C37.4966 151.512 37.0937 152.018 36.565 152.362C35.865 149.772 35.165 147.028 34.542 144.585C36.145 142.646 37.496 141.029 37.496 141.029C37.496 141.029 39.344 146.769 37.713 150.92Z" fill="black"/>
<path d="M35.424 129.402C31.994 129.815 21.48 155.932 22.124 160.055C22.768 164.178 45.371 162.309 45.371 162.309V156.009L32.169 153.349L36.74 144.389C37.549 141.786 37.8856 139.06 37.734 136.339C37.4429 133.894 36.657 131.534 35.424 129.402Z" fill="#F83758"/>
<path d="M32.071 171.969C32.0343 171.978 31.9958 171.978 31.959 171.969C31.9028 171.938 31.8611 171.886 31.8428 171.825C31.8244 171.763 31.831 171.697 31.861 171.64C31.924 171.514 38.462 158.97 35.984 155.022C35.6989 154.607 35.3032 154.28 34.8417 154.078C34.3802 153.877 33.8714 153.808 33.373 153.881C24.35 154.196 20.073 167.279 20.031 167.412C20.0053 167.465 19.9613 167.507 19.9072 167.53C19.8532 167.553 19.7926 167.556 19.7365 167.538C19.6805 167.52 19.6327 167.483 19.6019 167.433C19.5712 167.383 19.5595 167.323 19.569 167.265C19.611 167.125 23.986 153.72 33.352 153.391C33.9386 153.318 34.5338 153.41 35.0706 153.658C35.6075 153.905 36.0644 154.298 36.39 154.791C39.022 158.991 32.568 171.367 32.288 171.892C32.2613 171.922 32.2274 171.945 32.1895 171.958C32.1515 171.972 32.1108 171.976 32.071 171.969Z" fill="#F83758"/>
<g opacity="0.6">
<path d="M32.071 171.969C32.0343 171.978 31.9958 171.978 31.959 171.969C31.9028 171.938 31.8611 171.886 31.8428 171.825C31.8244 171.763 31.831 171.697 31.861 171.64C31.924 171.514 38.462 158.97 35.984 155.022C35.6989 154.607 35.3032 154.28 34.8417 154.078C34.3802 153.877 33.8714 153.808 33.373 153.881C24.35 154.196 20.073 167.279 20.031 167.412C20.0053 167.465 19.9613 167.507 19.9072 167.53C19.8532 167.553 19.7926 167.556 19.7365 167.538C19.6805 167.52 19.6327 167.483 19.6019 167.433C19.5712 167.383 19.5595 167.323 19.569 167.265C19.611 167.125 23.986 153.72 33.352 153.391C33.9386 153.318 34.5338 153.41 35.0706 153.658C35.6075 153.905 36.0644 154.298 36.39 154.791C39.022 158.991 32.568 171.367 32.288 171.892C32.2613 171.922 32.2274 171.945 32.1895 171.958C32.1515 171.972 32.1108 171.976 32.071 171.969Z" fill="white"/>
</g>
<path d="M16.083 164.465L1.91504 194.075L4.09905 202.979L28.949 211.47L40.73 175.889L37.475 172.578L37.167 170.639L16.083 164.465Z" fill="#263238"/>
<path opacity="0.2" d="M16.083 164.465L1.91504 194.075L4.09905 202.979L28.949 211.47L40.73 175.889L19.576 170.835L19.779 168.287L16.083 164.465Z" fill="white"/>
<path opacity="0.1" d="M19.5761 170.828L19.7791 168.287L16.0901 164.465L37.1601 170.639L37.4751 172.578L40.7301 175.889L19.5761 170.828Z" fill="white"/>
<path opacity="0.2" d="M19.576 170.835L4.099 202.979L28.949 211.47L40.73 175.889L19.576 170.835Z" fill="white"/>
<path opacity="0.1" d="M19.779 168.287L5.56204 194.6L1.91504 194.075L4.09905 202.979L5.96104 195.111L19.779 168.287Z" fill="white"/>
<path d="M33.8 153.258C33.2034 152.947 32.538 152.791 31.8652 152.804C31.1924 152.818 30.5338 153 29.95 153.335C24.7 156.317 22.908 170.933 22.698 172.809C22.5894 172.852 22.4994 172.932 22.4437 173.035C22.3881 173.137 22.3705 173.256 22.3939 173.371C22.4172 173.485 22.4802 173.588 22.5717 173.66C22.6631 173.733 22.7773 173.771 22.894 173.768C23.0258 173.768 23.1522 173.716 23.2455 173.622C23.3387 173.529 23.391 173.403 23.391 173.271C23.3894 173.193 23.3696 173.116 23.3331 173.047C23.2967 172.977 23.2446 172.918 23.181 172.872C23.377 171.15 25.204 156.59 30.181 153.762C30.6967 153.462 31.2807 153.298 31.8773 153.287C32.474 153.276 33.0636 153.418 33.59 153.699C40.982 157.129 35.767 173.355 34.822 176.099C34.7252 176.106 34.6325 176.141 34.5554 176.2C34.4783 176.259 34.4201 176.339 34.388 176.43C34.3559 176.522 34.3514 176.621 34.3749 176.715C34.3984 176.809 34.449 176.895 34.5204 176.96C34.5917 177.026 34.6808 177.069 34.7766 177.085C34.8724 177.101 34.9706 177.088 35.0593 177.049C35.1479 177.009 35.2231 176.945 35.2755 176.863C35.3278 176.781 35.3552 176.686 35.354 176.589C35.3525 176.493 35.3207 176.4 35.263 176.323C36.25 173.6 41.731 156.933 33.8 153.258Z" fill="#F83758"/>
<path opacity="0.7" d="M33.8 153.258C33.2034 152.947 32.538 152.791 31.8652 152.804C31.1924 152.818 30.5338 153 29.95 153.335C24.7 156.317 22.908 170.933 22.698 172.809C22.5894 172.852 22.4994 172.932 22.4437 173.035C22.3881 173.137 22.3705 173.256 22.3939 173.371C22.4172 173.485 22.4802 173.588 22.5717 173.66C22.6631 173.733 22.7773 173.771 22.894 173.768C23.0258 173.768 23.1522 173.716 23.2455 173.622C23.3387 173.529 23.391 173.403 23.391 173.271C23.3894 173.193 23.3696 173.116 23.3331 173.047C23.2967 172.977 23.2446 172.918 23.181 172.872C23.377 171.15 25.204 156.59 30.181 153.762C30.6967 153.462 31.2807 153.298 31.8773 153.287C32.474 153.276 33.0636 153.418 33.59 153.699C40.982 157.129 35.767 173.355 34.822 176.099C34.7252 176.106 34.6325 176.141 34.5554 176.2C34.4783 176.259 34.4201 176.339 34.388 176.43C34.3559 176.522 34.3514 176.621 34.3749 176.715C34.3984 176.809 34.449 176.895 34.5204 176.96C34.5917 177.026 34.6808 177.069 34.7766 177.085C34.8724 177.101 34.9706 177.088 35.0593 177.049C35.1479 177.009 35.2231 176.945 35.2755 176.863C35.3278 176.781 35.3552 176.686 35.354 176.589C35.3525 176.493 35.3207 176.4 35.263 176.323C36.25 173.6 41.731 156.933 33.8 153.258Z" fill="white"/>
<path d="M38.9801 171.073H38.9451C38.883 171.064 38.8269 171.031 38.7889 170.982C38.7509 170.932 38.7341 170.869 38.7421 170.807C38.7421 170.674 40.5131 157.136 36.7821 154.063C36.3626 153.739 35.8632 153.535 35.3368 153.472C34.8105 153.409 34.277 153.49 33.7931 153.706C25.2601 156.611 26.1771 170.009 26.1841 170.142C26.188 170.173 26.1853 170.205 26.1763 170.235C26.1673 170.265 26.152 170.292 26.1316 170.316C26.1111 170.34 26.0859 170.359 26.0576 170.373C26.0292 170.386 25.9984 170.393 25.9671 170.394C25.905 170.398 25.844 170.377 25.7969 170.337C25.7498 170.296 25.7204 170.239 25.7151 170.177C25.7151 170.037 24.7561 156.282 33.6391 153.258C34.2 153.016 34.8156 152.93 35.4214 153.007C36.0273 153.085 36.6012 153.324 37.0831 153.699C41.0171 156.933 39.2881 170.303 39.1831 170.87C39.1771 170.922 39.1538 170.97 39.1169 171.007C39.0801 171.044 39.0318 171.067 38.9801 171.073Z" fill="#263238"/>
<path d="M21.5711 168.511L12.2891 205.303L16.9581 213.192L43.2011 214.13L48.4651 172.326L44.3911 170.093L43.5371 168.329L21.5711 168.511Z" fill="#F83758"/>
<path opacity="0.5" d="M21.5711 168.511L12.2891 205.303L16.9581 213.192L43.2011 214.13L48.4651 172.326L26.7581 173.6L26.2121 171.101L21.5711 168.511Z" fill="white"/>
<path opacity="0.3" d="M26.751 173.6L26.212 171.101L21.571 168.511L43.53 168.322L44.391 170.093L48.465 172.326L26.751 173.6Z" fill="white"/>
<path opacity="0.2" d="M26.758 173.6L16.958 213.192L43.201 214.13L48.465 172.326L26.758 173.6Z" fill="white"/>
<path d="M30.6011 174.958C30.5464 174.959 30.4932 174.94 30.4509 174.906C30.4087 174.871 30.38 174.823 30.3701 174.769C30.2441 174.125 27.3951 159.005 31.6791 154.504C32.1503 154.007 32.7389 153.636 33.3908 153.426C34.0427 153.215 34.7371 153.172 35.4101 153.3C44.6221 154.609 43.4111 173.873 43.3551 174.692C43.3533 174.723 43.3453 174.753 43.3316 174.781C43.3179 174.809 43.2987 174.834 43.2752 174.854C43.2516 174.874 43.2243 174.89 43.1947 174.899C43.1651 174.908 43.134 174.912 43.1031 174.909C43.0717 174.908 43.0409 174.901 43.0126 174.888C42.9842 174.874 42.959 174.855 42.9386 174.831C42.9181 174.807 42.9029 174.78 42.8938 174.75C42.8848 174.72 42.8821 174.688 42.8861 174.657C42.8861 174.461 44.1251 155.015 35.3401 153.769C34.7428 153.65 34.125 153.684 33.5447 153.869C32.9643 154.054 32.4405 154.383 32.0221 154.826C27.8991 159.159 30.8041 174.524 30.8321 174.678C30.8425 174.74 30.8287 174.804 30.7935 174.856C30.7584 174.908 30.7045 174.945 30.6431 174.958H30.6011Z" fill="#263238"/>
<path opacity="0.1" d="M26.2121 171.101L15.9361 204.743L12.2891 205.303L16.9581 213.192L16.4681 205.121L26.2121 171.101Z" fill="white"/>
<path d="M31.1191 174.825C31.1385 174.887 31.1453 174.952 31.1392 175.017C31.1331 175.082 31.1142 175.145 31.0836 175.202C31.053 175.259 31.0113 175.31 30.9609 175.351C30.9105 175.392 30.8524 175.423 30.7901 175.441C30.696 175.47 30.5953 175.471 30.5008 175.443C30.4063 175.415 30.3224 175.359 30.2596 175.283C30.1968 175.207 30.158 175.114 30.1481 175.016C30.1383 174.918 30.1578 174.819 30.2042 174.732C30.2507 174.645 30.3219 174.574 30.4089 174.528C30.4959 174.481 30.5947 174.462 30.6928 174.472C30.7908 174.482 30.8837 174.521 30.9596 174.584C31.0356 174.646 31.0911 174.731 31.1191 174.825Z" fill="#263238"/>
<path d="M43.544 174.545C43.5732 174.639 43.5739 174.74 43.5457 174.834C43.5176 174.929 43.462 175.013 43.386 175.076C43.3101 175.138 43.2171 175.177 43.1191 175.187C43.021 175.197 42.9222 175.177 42.8352 175.131C42.7483 175.084 42.6771 175.013 42.6308 174.926C42.5844 174.839 42.565 174.74 42.5749 174.642C42.5849 174.544 42.6237 174.451 42.6866 174.375C42.7495 174.3 42.8335 174.244 42.928 174.216C42.99 174.197 43.0553 174.19 43.12 174.196C43.1847 174.202 43.2476 174.221 43.3049 174.252C43.3622 174.282 43.4129 174.324 43.4539 174.374C43.495 174.425 43.5256 174.483 43.544 174.545Z" fill="#263238"/>
<path d="M80.336 137.417C80.2793 137.417 80.2244 137.397 80.1818 137.36C80.1392 137.322 80.1119 137.27 80.105 137.214C80.105 137.074 78.068 122.899 86.356 118.538C86.8479 118.22 87.4179 118.044 88.0032 118.03C88.5886 118.015 89.1667 118.162 89.674 118.454C93.874 121.093 93.566 135.254 93.545 135.835C93.5432 135.897 93.5173 135.956 93.4729 135.999C93.4285 136.042 93.369 136.066 93.307 136.066C93.2755 136.066 93.2442 136.06 93.2153 136.047C93.1863 136.035 93.1602 136.016 93.1385 135.993C93.1169 135.971 93.1002 135.943 93.0894 135.914C93.0787 135.884 93.0741 135.852 93.076 135.821C93.076 135.681 93.426 121.352 89.422 118.86C88.9863 118.61 88.4892 118.486 87.9871 118.504C87.4849 118.521 86.9975 118.678 86.58 118.958C78.586 123.158 80.553 137.004 80.574 137.158C80.579 137.189 80.5776 137.22 80.5699 137.251C80.5623 137.281 80.5485 137.31 80.5295 137.335C80.5106 137.359 80.4867 137.38 80.4595 137.396C80.4322 137.411 80.4021 137.421 80.371 137.424L80.336 137.417Z" fill="#263238"/>
<path d="M75.7581 136.227L72.2931 174.013L78.1241 181.083L104.199 177.947L102.918 135.828L98.5501 134.253L97.4231 132.643L75.7581 136.227Z" fill="#263238"/>
<path opacity="0.5" d="M75.7581 136.227L72.2931 174.013L78.1241 181.083L104.199 177.947L102.918 135.828L81.6661 140.455L80.7421 138.068L75.7581 136.227Z" fill="white"/>
<path opacity="0.3" d="M81.6661 140.455L80.7421 138.068L75.7581 136.227L97.4231 132.643L98.5501 134.253L102.918 135.828L81.6661 140.455Z" fill="white"/>
<path opacity="0.2" d="M81.666 140.455L78.124 181.083L104.199 177.947L102.918 135.828L81.666 140.455Z" fill="white"/>
<path d="M85.6421 141.204C85.5933 141.205 85.5453 141.191 85.505 141.163C85.4648 141.136 85.4343 141.096 85.4181 141.05C85.2081 140.483 80.4061 127.05 83.8081 121.107C84.1881 120.414 84.721 119.817 85.3662 119.361C86.0115 118.905 86.7522 118.602 87.5321 118.475C88.2668 118.331 89.0241 118.352 89.7501 118.534C90.4761 118.717 91.1529 119.058 91.7321 119.532C97.1991 123.795 98.1791 138.348 98.2141 138.964C98.2162 139.026 98.1951 139.086 98.1549 139.132C98.1147 139.179 98.0583 139.209 97.9971 139.216C97.9658 139.218 97.9345 139.214 97.9049 139.203C97.8753 139.193 97.848 139.177 97.8246 139.156C97.8012 139.136 97.7821 139.11 97.7684 139.082C97.7548 139.054 97.7469 139.023 97.7451 138.992C97.7451 138.845 96.7441 124.033 91.4451 119.903C90.9137 119.469 90.2933 119.157 89.6278 118.991C88.9624 118.824 88.2684 118.805 87.5951 118.937C86.8841 119.053 86.2088 119.33 85.6206 119.746C85.0324 120.162 84.5466 120.706 84.2001 121.338C80.9031 127.092 85.7891 140.749 85.8381 140.889C85.8492 140.918 85.8543 140.949 85.8533 140.98C85.8522 141.011 85.8449 141.041 85.8319 141.069C85.8188 141.097 85.8002 141.122 85.7772 141.143C85.7543 141.164 85.7273 141.18 85.6981 141.19L85.6421 141.204Z" fill="#263238"/>
<path opacity="0.1" d="M80.7421 138.068L75.8071 172.9L72.2931 174.013L78.1241 181.083L76.3881 173.187L80.7421 138.068Z" fill="white"/>
<path d="M86.167 140.987C86.2083 141.074 86.2229 141.172 86.2088 141.268C86.1947 141.363 86.1527 141.453 86.088 141.524C86.0233 141.596 85.9388 141.647 85.8452 141.671C85.7515 141.695 85.6529 141.691 85.5617 141.659C85.4705 141.627 85.3908 141.568 85.3327 141.491C85.2745 141.414 85.2405 141.321 85.2348 141.225C85.2292 141.128 85.2523 141.032 85.301 140.949C85.3498 140.866 85.4222 140.798 85.509 140.756C85.5673 140.728 85.6307 140.711 85.6955 140.707C85.7602 140.703 85.8251 140.713 85.8863 140.734C85.9475 140.755 86.0039 140.789 86.0521 140.832C86.1002 140.876 86.1393 140.928 86.167 140.987Z" fill="#263238"/>
<path d="M98.403 138.782C98.442 138.87 98.4545 138.967 98.4392 139.062C98.4239 139.157 98.3814 139.246 98.3168 139.317C98.2521 139.388 98.1683 139.439 98.0753 139.464C97.9822 139.488 97.8841 139.485 97.7928 139.455C97.7015 139.425 97.6208 139.369 97.5607 139.294C97.5006 139.219 97.4635 139.128 97.454 139.032C97.4445 138.937 97.4629 138.84 97.5071 138.755C97.5513 138.669 97.6194 138.598 97.703 138.551C97.7634 138.517 97.8303 138.495 97.8994 138.489C97.9686 138.482 98.0383 138.489 98.1043 138.511C98.1702 138.533 98.2309 138.568 98.2824 138.615C98.3338 138.662 98.3749 138.718 98.403 138.782Z" fill="#263238"/>
<path d="M56.9001 151.9L57.0471 150.689L57.1521 150.577C57.6981 149.877 57.5931 148.666 57.4461 147.721C57.2991 146.776 56.8021 145.502 55.9061 145.159C56.0372 144.904 56.0696 144.61 55.9971 144.333C55.9423 144.149 55.841 143.983 55.7031 143.85C56.3541 143.15 56.3261 141.862 56.1021 140.931C55.8781 140 55.5001 138.831 54.7021 138.404C54.6544 138.38 54.6053 138.359 54.5551 138.341L53.9601 137.291L53.2041 137.445L53.1481 138.32C51.8181 138.733 50.4741 139.783 50.8171 141.477C50.8138 141.5 50.8138 141.524 50.8171 141.547C51.1881 143.192 53.0151 144.074 54.6811 144.214C54.8849 144.26 55.098 144.24 55.2901 144.158C55.3888 144.239 55.4598 144.349 55.4931 144.473C55.5336 144.668 55.4959 144.872 55.3881 145.04C55.2037 145.069 55.0273 145.135 54.8701 145.236C53.4001 146.006 52.0701 147.518 52.3501 149.184C52.3501 149.184 52.3501 149.233 52.3501 149.254C52.6931 150.948 54.2751 151.403 55.7171 151.263L56.1161 152.061L56.9001 151.9ZM54.7161 143.724C53.3161 143.598 51.6151 142.835 51.3001 141.428C50.9851 140.021 52.1821 139.083 53.4001 138.733C53.5692 138.675 53.7486 138.652 53.9269 138.666C54.1052 138.681 54.2785 138.732 54.4361 138.817C55.0591 139.181 55.3811 140.217 55.5841 141.036L55.6261 141.211C55.7591 141.911 55.8221 143.017 55.2901 143.528C55.0591 143.752 55.0591 143.752 54.6951 143.724H54.7161ZM55.8361 150.759C55.2201 150.843 53.1551 150.934 52.8401 149.093C52.5951 147.693 53.8411 146.293 55.1221 145.649C55.4301 145.495 55.4301 145.495 55.7311 145.649C56.4311 145.915 56.7951 146.965 56.9351 147.658C56.9351 147.714 56.9351 147.777 56.9351 147.826C57.0681 148.687 57.1731 149.744 56.7321 150.325C56.6171 150.456 56.4764 150.563 56.3186 150.637C56.1609 150.712 55.9895 150.753 55.8151 150.759H55.8361Z" fill="#263238"/>
<path d="M55.85 151.004C54.45 151.186 52.875 150.773 52.581 149.135C52.287 147.497 53.61 146.16 54.975 145.446C55.374 145.236 55.388 145.222 55.801 145.383C56.641 145.712 57.061 146.979 57.201 147.756C57.418 149.261 57.439 150.801 55.85 151.004Z" fill="#F83758"/>
<path d="M53.337 138.502C51.937 138.887 50.684 139.902 51.048 141.484C51.412 143.066 53.148 143.836 54.674 143.962C55.122 144.004 55.143 144.011 55.458 143.703C56.109 143.073 56.011 141.743 55.822 140.98C55.458 139.496 54.877 138.068 53.337 138.502Z" fill="#F83758"/>
<path d="M56.256 151.319C55.262 147.329 54.023 142.919 53.68 142.541C53.1105 142.307 52.5198 142.129 51.916 142.009L52.014 141.547C52.6751 141.676 53.3205 141.875 53.939 142.142C54.464 142.443 55.899 147.952 56.739 151.207L56.256 151.319Z" fill="#263238"/>
<path opacity="0.4" d="M55.85 151.004C54.45 151.186 52.875 150.773 52.581 149.135C52.287 147.497 53.61 146.16 54.975 145.446C55.374 145.236 55.388 145.222 55.801 145.383C56.641 145.712 57.061 146.979 57.201 147.756C57.418 149.261 57.439 150.801 55.85 151.004Z" fill="white"/>
<path opacity="0.4" d="M53.337 138.502C51.937 138.887 50.684 139.902 51.048 141.484C51.412 143.066 53.148 143.836 54.674 143.962C55.122 144.004 55.143 144.011 55.458 143.703C56.109 143.073 56.011 141.743 55.822 140.98C55.458 139.496 54.877 138.068 53.337 138.502Z" fill="white"/>
<path d="M85.6001 138.264C85.5517 138.263 85.5046 138.248 85.4647 138.221C85.4249 138.194 85.394 138.155 85.376 138.11C85.103 137.466 78.761 122.143 87.364 118.258C87.8709 118.015 88.4276 117.895 88.9894 117.907C89.5512 117.92 90.1022 118.064 90.5981 118.328C95.4981 120.806 98.1651 133.504 98.2981 134.043C98.3053 134.074 98.3063 134.106 98.301 134.137C98.2957 134.168 98.2843 134.198 98.2673 134.225C98.2504 134.251 98.2283 134.275 98.2023 134.293C98.1763 134.311 98.147 134.323 98.1161 134.33C98.0529 134.345 97.9866 134.334 97.9315 134.3C97.8764 134.266 97.837 134.211 97.822 134.148C97.822 134.015 95.0641 121.135 90.3951 118.748C89.9662 118.517 89.4886 118.392 89.0018 118.382C88.515 118.373 88.0328 118.479 87.5951 118.692C79.4261 122.381 85.796 137.753 85.859 137.907C85.8728 137.936 85.8805 137.968 85.8816 138C85.8827 138.033 85.8772 138.065 85.8654 138.095C85.8536 138.125 85.8358 138.153 85.813 138.176C85.7903 138.199 85.7631 138.217 85.7331 138.229C85.693 138.253 85.6468 138.265 85.6001 138.264Z" fill="#263238"/>
<g opacity="0.7">
<path d="M85.6001 138.264C85.5517 138.263 85.5046 138.248 85.4647 138.221C85.4249 138.194 85.394 138.155 85.376 138.11C85.103 137.466 78.761 122.143 87.364 118.258C87.8709 118.015 88.4276 117.895 88.9894 117.907C89.5512 117.92 90.1022 118.064 90.5981 118.328C95.4981 120.806 98.1651 133.504 98.2981 134.043C98.3053 134.074 98.3063 134.106 98.301 134.137C98.2957 134.168 98.2843 134.198 98.2673 134.225C98.2504 134.251 98.2283 134.275 98.2023 134.293C98.1763 134.311 98.147 134.323 98.1161 134.33C98.0529 134.345 97.9866 134.334 97.9315 134.3C97.8764 134.266 97.837 134.211 97.822 134.148C97.822 134.015 95.0641 121.135 90.3951 118.748C89.9662 118.517 89.4886 118.392 89.0018 118.382C88.515 118.373 88.0328 118.479 87.5951 118.692C79.4261 122.381 85.796 137.753 85.859 137.907C85.8728 137.936 85.8805 137.968 85.8816 138C85.8827 138.033 85.8772 138.065 85.8654 138.095C85.8536 138.125 85.8358 138.153 85.813 138.176C85.7903 138.199 85.7631 138.217 85.7331 138.229C85.693 138.253 85.6468 138.265 85.6001 138.264Z" fill="white"/>
</g>
<path d="M80.938 138.005L87.609 170.156L94.742 175.917L119.655 167.608L107.468 132.167L102.869 131.502L101.448 130.144L80.938 138.005Z" fill="#F83758"/>
<path opacity="0.2" d="M80.938 138.005L87.609 170.156L94.742 175.917L119.655 167.608L107.468 132.167L87.574 140.959L86.188 138.81L80.938 138.005Z" fill="white"/>
<path opacity="0.1" d="M87.567 140.959L86.188 138.81L80.938 138.005L101.441 130.144L102.869 131.502L107.461 132.167L87.567 140.959Z" fill="white"/>
<path opacity="0.2" d="M87.5741 140.959L94.7421 175.917L119.655 167.608L107.468 132.167L87.5741 140.959Z" fill="white"/>
<path opacity="0.1" d="M86.188 138.81L90.829 168.357L87.609 170.156L94.742 175.917L91.459 168.525L86.188 138.81Z" fill="white"/>
<path d="M103.632 135.968C103.57 135.896 103.49 135.841 103.401 135.807C102.491 133.007 96.5831 116.088 88.0571 117.971C87.3996 118.083 86.7811 118.36 86.2586 118.775C85.7362 119.189 85.3267 119.729 85.0681 120.344C82.6741 125.944 90.2831 138.992 91.2631 140.644C91.2167 140.729 91.196 140.826 91.2035 140.923C91.2109 141.02 91.2462 141.113 91.3051 141.19C91.3443 141.243 91.3938 141.287 91.4506 141.321C91.5074 141.354 91.5704 141.376 91.6357 141.384C91.7011 141.393 91.7675 141.388 91.8309 141.37C91.8944 141.353 91.9536 141.322 92.0051 141.281C92.0578 141.242 92.1022 141.192 92.1357 141.136C92.1692 141.079 92.1911 141.017 92.2002 140.951C92.2093 140.886 92.2054 140.82 92.1888 140.756C92.1721 140.693 92.143 140.633 92.1031 140.581C92.0557 140.519 91.994 140.47 91.9233 140.437C91.8526 140.404 91.775 140.388 91.6971 140.392C90.8011 138.88 83.2481 125.86 85.5231 120.533C85.7511 119.988 86.1133 119.51 86.5759 119.143C87.0386 118.775 87.5867 118.531 88.1691 118.433C96.1281 116.683 101.98 133.077 102.925 135.933C102.83 136.013 102.77 136.127 102.755 136.25C102.741 136.374 102.774 136.498 102.848 136.598C102.93 136.701 103.048 136.769 103.178 136.788C103.309 136.806 103.441 136.773 103.548 136.696C103.603 136.655 103.649 136.603 103.683 136.544C103.717 136.484 103.739 136.418 103.747 136.35C103.755 136.282 103.749 136.213 103.729 136.147C103.709 136.081 103.676 136.021 103.632 135.968Z" fill="#263238"/>
<path opacity="0.8" d="M103.632 135.968C103.57 135.896 103.49 135.841 103.401 135.807C102.491 133.007 96.5831 116.088 88.0571 117.971C87.3996 118.083 86.7811 118.36 86.2586 118.775C85.7362 119.189 85.3267 119.729 85.0681 120.344C82.6741 125.944 90.2831 138.992 91.2631 140.644C91.2167 140.729 91.196 140.826 91.2035 140.923C91.2109 141.02 91.2462 141.113 91.3051 141.19C91.3443 141.243 91.3938 141.287 91.4506 141.321C91.5074 141.354 91.5704 141.376 91.6357 141.384C91.7011 141.393 91.7675 141.388 91.8309 141.37C91.8944 141.353 91.9536 141.322 92.0051 141.281C92.0578 141.242 92.1022 141.192 92.1357 141.136C92.1692 141.079 92.1911 141.017 92.2002 140.951C92.2093 140.886 92.2054 140.82 92.1888 140.756C92.1721 140.693 92.143 140.633 92.1031 140.581C92.0557 140.519 91.994 140.47 91.9233 140.437C91.8526 140.404 91.775 140.388 91.6971 140.392C90.8011 138.88 83.2481 125.86 85.5231 120.533C85.7511 119.988 86.1133 119.51 86.5759 119.143C87.0386 118.775 87.5867 118.531 88.1691 118.433C96.1281 116.683 101.98 133.077 102.925 135.933C102.83 136.013 102.77 136.127 102.755 136.25C102.741 136.374 102.774 136.498 102.848 136.598C102.93 136.701 103.048 136.769 103.178 136.788C103.309 136.806 103.441 136.773 103.548 136.696C103.603 136.655 103.649 136.603 103.683 136.544C103.717 136.484 103.739 136.418 103.747 136.35C103.755 136.282 103.749 136.213 103.729 136.147C103.709 136.081 103.676 136.021 103.632 135.968Z" fill="white"/>
<path d="M94.742 117.712L89.464 116.067L86.468 120.778L92.194 123.536L94.742 117.712Z" fill="#E4897B"/>
<path d="M50.187 155.253L45 156.73L43.922 160.153C44.419 162.953 49.76 161.742 49.76 161.742L50.852 162.442C51.0575 162.571 51.2914 162.647 51.5332 162.664C51.775 162.681 52.0174 162.639 52.2391 162.541C52.4608 162.443 52.6551 162.292 52.805 162.101C52.9549 161.911 53.0558 161.687 53.099 161.448L53.666 158.214C53.707 157.953 53.6774 157.685 53.5802 157.439C53.4829 157.193 53.3216 156.977 53.113 156.814L51.482 155.54C51.3035 155.395 51.0934 155.293 50.8685 155.243C50.6437 155.193 50.4103 155.197 50.187 155.253Z" fill="#E4897B"/>
<path d="M24.9101 149.275C23.0971 154.238 21.8791 158.571 22.1101 160.055C22.7401 164.185 45.3571 162.309 45.3571 162.309V156.009L32.1551 153.349L24.9101 149.275Z" fill="#F83758"/>
<path d="M20.9481 164.703C20.9134 164.71 20.8777 164.71 20.8431 164.703C20.8143 164.69 20.7885 164.67 20.7672 164.647C20.7459 164.623 20.7296 164.596 20.7191 164.566C20.7087 164.536 20.7044 164.504 20.7064 164.472C20.7085 164.44 20.7168 164.409 20.7311 164.381C22.5791 160.377 26.6881 153.622 33.3311 153.384C33.3955 153.384 33.4576 153.409 33.5045 153.453C33.5514 153.497 33.5795 153.558 33.5831 153.622C33.585 153.686 33.5619 153.748 33.5188 153.795C33.4756 153.842 33.4158 153.87 33.3521 153.874C26.9471 154.098 22.9571 160.678 21.1511 164.584C21.1299 164.619 21.1003 164.649 21.0648 164.669C21.0293 164.69 20.9892 164.702 20.9481 164.703Z" fill="#F83758"/>
<g opacity="0.6">
<path d="M20.9481 164.703C20.9134 164.71 20.8777 164.71 20.8431 164.703C20.8143 164.69 20.7885 164.67 20.7672 164.647C20.7459 164.623 20.7296 164.596 20.7191 164.566C20.7087 164.536 20.7044 164.504 20.7064 164.472C20.7085 164.44 20.7168 164.409 20.7311 164.381C22.5791 160.377 26.6881 153.622 33.3311 153.384C33.3955 153.384 33.4576 153.409 33.5045 153.453C33.5514 153.497 33.5795 153.558 33.5831 153.622C33.585 153.686 33.5619 153.748 33.5188 153.795C33.4756 153.842 33.4158 153.87 33.3521 153.874C26.9471 154.098 22.9571 160.678 21.1511 164.584C21.1299 164.619 21.1003 164.649 21.0648 164.669C21.0293 164.69 20.9892 164.702 20.9481 164.703Z" fill="white"/>
</g>
<path d="M23.853 167.454H23.804C23.7408 167.44 23.6851 167.403 23.6486 167.35C23.6121 167.296 23.5976 167.231 23.608 167.167C24.686 161.777 26.695 154.987 30.146 153.237C30.7139 152.947 31.3424 152.796 31.98 152.796C32.6176 152.796 33.2462 152.947 33.814 153.237C33.8475 153.247 33.8784 153.264 33.9046 153.288C33.9309 153.311 33.9519 153.339 33.9662 153.371C33.9805 153.403 33.9878 153.438 33.9877 153.473C33.9875 153.508 33.9799 153.542 33.9652 153.574C33.9506 153.606 33.9293 153.634 33.9029 153.657C33.8764 153.68 33.8454 153.697 33.8118 153.706C33.7782 153.716 33.743 153.719 33.7083 153.714C33.6737 153.709 33.6405 153.697 33.611 153.678C33.1108 153.417 32.5549 153.28 31.9905 153.28C31.4262 153.28 30.8702 153.417 30.37 153.678C27.094 155.337 25.141 161.987 24.07 167.265C24.0584 167.315 24.0312 167.361 23.9922 167.395C23.9532 167.429 23.9045 167.449 23.853 167.454Z" fill="#F83758"/>
<g opacity="0.7">
<path d="M23.853 167.454H23.804C23.7408 167.44 23.6851 167.403 23.6486 167.35C23.6121 167.296 23.5976 167.231 23.608 167.167C24.686 161.777 26.695 154.987 30.146 153.237C30.7139 152.947 31.3424 152.796 31.98 152.796C32.6176 152.796 33.2462 152.947 33.814 153.237C33.8475 153.247 33.8784 153.264 33.9046 153.288C33.9309 153.311 33.9519 153.339 33.9662 153.371C33.9805 153.403 33.9878 153.438 33.9877 153.473C33.9875 153.508 33.9799 153.542 33.9652 153.574C33.9506 153.606 33.9293 153.634 33.9029 153.657C33.8764 153.68 33.8454 153.697 33.8118 153.706C33.7782 153.716 33.743 153.719 33.7083 153.714C33.6737 153.709 33.6405 153.697 33.611 153.678C33.1108 153.417 32.5549 153.28 31.9905 153.28C31.4262 153.28 30.8702 153.417 30.37 153.678C27.094 155.337 25.141 161.987 24.07 167.265C24.0584 167.315 24.0312 167.361 23.9922 167.395C23.9532 167.429 23.9045 167.449 23.853 167.454Z" fill="white"/>
</g>
<path d="M26.0371 166.404C26.0058 166.401 25.9753 166.393 25.9474 166.378C25.9196 166.364 25.8948 166.344 25.8747 166.32C25.8545 166.296 25.8393 166.268 25.8299 166.238C25.8205 166.208 25.8172 166.176 25.8201 166.145C26.1841 162.204 27.6821 155.295 33.6601 153.258C33.6895 153.247 33.7207 153.242 33.752 153.244C33.7833 153.245 33.814 153.253 33.8422 153.267C33.8703 153.281 33.8954 153.3 33.9158 153.324C33.9363 153.347 33.9517 153.375 33.9611 153.405C33.9812 153.464 33.977 153.529 33.9495 153.586C33.922 153.642 33.8733 153.685 33.8141 153.706C28.3751 155.554 26.7231 161.518 26.2891 166.194C26.2865 166.224 26.2778 166.254 26.2637 166.281C26.2496 166.308 26.2303 166.332 26.2068 166.351C26.1834 166.371 26.1563 166.386 26.1272 166.395C26.0981 166.404 26.0675 166.407 26.0371 166.404Z" fill="#263238"/>
<path d="M30.6011 174.958C30.5464 174.959 30.4932 174.94 30.4509 174.906C30.4087 174.871 30.38 174.823 30.3701 174.769C30.2441 174.125 27.3951 159.005 31.6791 154.504C32.1503 154.007 32.7389 153.636 33.3908 153.426C34.0427 153.215 34.7371 153.172 35.4101 153.3C35.4713 153.31 35.5264 153.344 35.564 153.393C35.6017 153.442 35.6193 153.504 35.6131 153.566C35.6027 153.629 35.5685 153.685 35.5175 153.723C35.4666 153.76 35.403 153.777 35.3401 153.769C34.7428 153.65 34.125 153.684 33.5447 153.869C32.9643 154.054 32.4405 154.383 32.0221 154.826C27.8991 159.159 30.8041 174.524 30.8321 174.678C30.8425 174.74 30.8287 174.804 30.7935 174.856C30.7584 174.908 30.7045 174.945 30.6431 174.958H30.6011Z" fill="#263238"/>
</svg>
