<svg width="343" height="60" viewBox="0 0 343 60" fill="none" xmlns="http://www.w3.org/2000/svg">
<rect width="343" height="60" rx="8" fill="#4392F9"/>
<path d="M9.68 24V12.8H14.4C15.5947 12.8 16.6453 13.0347 17.552 13.504C18.4693 13.9733 19.1787 14.6293 19.68 15.472C20.192 16.3147 20.448 17.2907 20.448 18.4C20.448 19.5093 20.192 20.4853 19.68 21.328C19.1787 22.1707 18.4693 22.8267 17.552 23.296C16.6453 23.7653 15.5947 24 14.4 24H9.68ZM11.28 22.608H14.304C15.232 22.608 16.032 22.432 16.704 22.08C17.3867 21.728 17.9147 21.2373 18.288 20.608C18.6613 19.968 18.848 19.232 18.848 18.4C18.848 17.5573 18.6613 16.8213 18.288 16.192C17.9147 15.5627 17.3867 15.072 16.704 14.72C16.032 14.368 15.232 14.192 14.304 14.192H11.28V22.608ZM26.4508 24.096C25.5441 24.096 24.7441 23.9093 24.0508 23.536C23.3681 23.1627 22.8348 22.6507 22.4508 22C22.0774 21.3493 21.8908 20.6027 21.8908 19.76C21.8908 18.9173 22.0721 18.1707 22.4348 17.52C22.8081 16.8693 23.3148 16.3627 23.9548 16C24.6054 15.6267 25.3361 15.44 26.1468 15.44C26.9681 15.44 27.6934 15.6213 28.3228 15.984C28.9521 16.3467 29.4428 16.8587 29.7948 17.52C30.1574 18.1707 30.3388 18.9333 30.3388 19.808C30.3388 19.872 30.3334 19.9467 30.3228 20.032C30.3228 20.1173 30.3174 20.1973 30.3068 20.272H23.0908V19.168H29.5068L28.8828 19.552C28.8934 19.008 28.7814 18.5227 28.5468 18.096C28.3121 17.6693 27.9868 17.3387 27.5708 17.104C27.1654 16.8587 26.6908 16.736 26.1468 16.736C25.6134 16.736 25.1388 16.8587 24.7228 17.104C24.3068 17.3387 23.9814 17.6747 23.7468 18.112C23.5121 18.5387 23.3948 19.0293 23.3948 19.584V19.84C23.3948 20.4053 23.5228 20.912 23.7788 21.36C24.0454 21.7973 24.4134 22.1387 24.8828 22.384C25.3521 22.6293 25.8908 22.752 26.4988 22.752C27.0001 22.752 27.4534 22.6667 27.8588 22.496C28.2748 22.3253 28.6374 22.0693 28.9468 21.728L29.7948 22.72C29.4108 23.168 28.9308 23.5093 28.3548 23.744C27.7894 23.9787 27.1548 24.096 26.4508 24.096ZM37.5013 24V22.208L37.4213 21.872V18.816C37.4213 18.1653 37.2293 17.664 36.8453 17.312C36.4719 16.9493 35.9066 16.768 35.1493 16.768C34.6479 16.768 34.1573 16.8533 33.6773 17.024C33.1973 17.184 32.7919 17.4027 32.4613 17.68L31.8213 16.528C32.2586 16.176 32.7813 15.9093 33.3893 15.728C34.0079 15.536 34.6533 15.44 35.3253 15.44C36.4879 15.44 37.3839 15.7227 38.0133 16.288C38.6426 16.8533 38.9573 17.7173 38.9573 18.88V24H37.5013ZM34.7173 24.096C34.0879 24.096 33.5333 23.9893 33.0533 23.776C32.5839 23.5627 32.2213 23.2693 31.9653 22.896C31.7093 22.512 31.5813 22.08 31.5813 21.6C31.5813 21.1413 31.6879 20.7253 31.9013 20.352C32.1253 19.9787 32.4826 19.68 32.9733 19.456C33.4746 19.232 34.1466 19.12 34.9893 19.12H37.6773V20.224H35.0533C34.2853 20.224 33.7679 20.352 33.5013 20.608C33.2346 20.864 33.1013 21.1733 33.1013 21.536C33.1013 21.952 33.2666 22.288 33.5973 22.544C33.9279 22.7893 34.3866 22.912 34.9733 22.912C35.5493 22.912 36.0506 22.784 36.4773 22.528C36.9146 22.272 37.2293 21.8987 37.4213 21.408L37.7253 22.464C37.5226 22.9653 37.1653 23.3653 36.6533 23.664C36.1413 23.952 35.4959 24.096 34.7173 24.096ZM41.7998 24V12.128H43.3358V24H41.7998ZM54.1974 24.096C53.344 24.096 52.5867 23.9093 51.9254 23.536C51.264 23.1627 50.7414 22.6507 50.3574 22C49.9734 21.3387 49.7814 20.592 49.7814 19.76C49.7814 18.9173 49.9734 18.1707 50.3574 17.52C50.7414 16.8693 51.264 16.3627 51.9254 16C52.5867 15.6267 53.344 15.44 54.1974 15.44C55.04 15.44 55.792 15.6267 56.4534 16C57.1254 16.3627 57.648 16.8693 58.0214 17.52C58.4054 18.16 58.5974 18.9067 58.5974 19.76C58.5974 20.6027 58.4054 21.3493 58.0214 22C57.648 22.6507 57.1254 23.1627 56.4534 23.536C55.792 23.9093 55.04 24.096 54.1974 24.096ZM54.1974 22.752C54.7414 22.752 55.2267 22.6293 55.6534 22.384C56.0907 22.1387 56.432 21.792 56.6774 21.344C56.9227 20.8853 57.0454 20.3573 57.0454 19.76C57.0454 19.152 56.9227 18.6293 56.6774 18.192C56.432 17.744 56.0907 17.3973 55.6534 17.152C55.2267 16.9067 54.7414 16.784 54.1974 16.784C53.6534 16.784 53.168 16.9067 52.7414 17.152C52.3147 17.3973 51.9734 17.744 51.7174 18.192C51.4614 18.6293 51.3334 19.152 51.3334 19.76C51.3334 20.3573 51.4614 20.8853 51.7174 21.344C51.9734 21.792 52.3147 22.1387 52.7414 22.384C53.168 22.6293 53.6534 22.752 54.1974 22.752ZM60.9456 24V14.768C60.9456 13.936 61.1856 13.2747 61.6656 12.784C62.1563 12.2827 62.8496 12.032 63.7456 12.032C64.0763 12.032 64.391 12.0747 64.6896 12.16C64.999 12.2347 65.2603 12.3573 65.4736 12.528L65.0096 13.696C64.8496 13.568 64.6683 13.472 64.4656 13.408C64.263 13.3333 64.0496 13.296 63.8256 13.296C63.3776 13.296 63.0363 13.424 62.8016 13.68C62.567 13.9253 62.4496 14.2933 62.4496 14.784V15.92L62.4816 16.624V24H60.9456ZM59.5056 16.784V15.52H64.9136V16.784H59.5056ZM73.5711 24.096C72.7178 24.096 72.0565 23.8667 71.5871 23.408C71.1178 22.9493 70.8831 22.2933 70.8831 21.44V13.664H72.4191V21.376C72.4191 21.8347 72.5311 22.1867 72.7551 22.432C72.9898 22.6773 73.3205 22.8 73.7471 22.8C74.2271 22.8 74.6271 22.6667 74.9471 22.4L75.4271 23.504C75.1925 23.7067 74.9098 23.856 74.5791 23.952C74.2591 24.048 73.9231 24.096 73.5711 24.096ZM69.4431 16.784V15.52H74.8511V16.784H69.4431ZM81.8121 15.44C82.5055 15.44 83.1135 15.5733 83.6361 15.84C84.1695 16.1067 84.5855 16.512 84.8841 17.056C85.1828 17.6 85.3321 18.288 85.3321 19.12V24H83.7961V19.296C83.7961 18.4747 83.5935 17.856 83.1881 17.44C82.7935 17.024 82.2335 16.816 81.5081 16.816C80.9641 16.816 80.4895 16.9227 80.0841 17.136C79.6788 17.3493 79.3641 17.664 79.1401 18.08C78.9268 18.496 78.8201 19.0133 78.8201 19.632V24H77.2841V12.128H78.8201V17.808L78.5161 17.2C78.7935 16.6453 79.2201 16.2133 79.7961 15.904C80.3721 15.5947 81.0441 15.44 81.8121 15.44ZM91.9508 24.096C91.0441 24.096 90.2441 23.9093 89.5508 23.536C88.8681 23.1627 88.3348 22.6507 87.9508 22C87.5774 21.3493 87.3908 20.6027 87.3908 19.76C87.3908 18.9173 87.5721 18.1707 87.9348 17.52C88.3081 16.8693 88.8148 16.3627 89.4548 16C90.1054 15.6267 90.8361 15.44 91.6468 15.44C92.4681 15.44 93.1934 15.6213 93.8228 15.984C94.4521 16.3467 94.9428 16.8587 95.2948 17.52C95.6574 18.1707 95.8388 18.9333 95.8388 19.808C95.8388 19.872 95.8334 19.9467 95.8228 20.032C95.8228 20.1173 95.8174 20.1973 95.8068 20.272H88.5908V19.168H95.0068L94.3828 19.552C94.3934 19.008 94.2814 18.5227 94.0468 18.096C93.8121 17.6693 93.4868 17.3387 93.0708 17.104C92.6654 16.8587 92.1908 16.736 91.6468 16.736C91.1134 16.736 90.6388 16.8587 90.2228 17.104C89.8068 17.3387 89.4814 17.6747 89.2468 18.112C89.0121 18.5387 88.8948 19.0293 88.8948 19.584V19.84C88.8948 20.4053 89.0228 20.912 89.2788 21.36C89.5454 21.7973 89.9134 22.1387 90.3828 22.384C90.8521 22.6293 91.3908 22.752 91.9988 22.752C92.5001 22.752 92.9534 22.6667 93.3588 22.496C93.7748 22.3253 94.1374 22.0693 94.4468 21.728L95.2948 22.72C94.9108 23.168 94.4308 23.5093 93.8548 23.744C93.2894 23.9787 92.6548 24.096 91.9508 24.096ZM102.493 24V12.8H107.213C108.407 12.8 109.458 13.0347 110.365 13.504C111.282 13.9733 111.991 14.6293 112.493 15.472C113.005 16.3147 113.261 17.2907 113.261 18.4C113.261 19.5093 113.005 20.4853 112.493 21.328C111.991 22.1707 111.282 22.8267 110.365 23.296C109.458 23.7653 108.407 24 107.213 24H102.493ZM104.093 22.608H107.117C108.045 22.608 108.845 22.432 109.517 22.08C110.199 21.728 110.727 21.2373 111.101 20.608C111.474 19.968 111.661 19.232 111.661 18.4C111.661 17.5573 111.474 16.8213 111.101 16.192C110.727 15.5627 110.199 15.072 109.517 14.72C108.845 14.368 108.045 14.192 107.117 14.192H104.093V22.608ZM120.751 24V22.208L120.671 21.872V18.816C120.671 18.1653 120.479 17.664 120.095 17.312C119.722 16.9493 119.157 16.768 118.399 16.768C117.898 16.768 117.407 16.8533 116.927 17.024C116.447 17.184 116.042 17.4027 115.711 17.68L115.071 16.528C115.509 16.176 116.031 15.9093 116.639 15.728C117.258 15.536 117.903 15.44 118.575 15.44C119.738 15.44 120.634 15.7227 121.263 16.288C121.893 16.8533 122.207 17.7173 122.207 18.88V24H120.751ZM117.967 24.096C117.338 24.096 116.783 23.9893 116.303 23.776C115.834 23.5627 115.471 23.2693 115.215 22.896C114.959 22.512 114.831 22.08 114.831 21.6C114.831 21.1413 114.938 20.7253 115.151 20.352C115.375 19.9787 115.733 19.68 116.223 19.456C116.725 19.232 117.397 19.12 118.239 19.12H120.927V20.224H118.303C117.535 20.224 117.018 20.352 116.751 20.608C116.485 20.864 116.351 21.1733 116.351 21.536C116.351 21.952 116.517 22.288 116.847 22.544C117.178 22.7893 117.637 22.912 118.223 22.912C118.799 22.912 119.301 22.784 119.727 22.528C120.165 22.272 120.479 21.8987 120.671 21.408L120.975 22.464C120.773 22.9653 120.415 23.3653 119.903 23.664C119.391 23.952 118.746 24.096 117.967 24.096ZM125.262 27.2C124.856 27.2 124.462 27.1307 124.078 26.992C123.694 26.864 123.363 26.672 123.085 26.416L123.742 25.264C123.955 25.4667 124.19 25.6213 124.446 25.728C124.702 25.8347 124.974 25.888 125.262 25.888C125.635 25.888 125.944 25.792 126.19 25.6C126.435 25.408 126.664 25.0667 126.878 24.576L127.406 23.408L127.566 23.216L130.894 15.52H132.398L128.286 24.848C128.04 25.4453 127.763 25.9147 127.454 26.256C127.155 26.5973 126.824 26.8373 126.462 26.976C126.099 27.1253 125.699 27.2 125.262 27.2ZM127.278 24.272L123.405 15.52H125.006L128.302 23.072L127.278 24.272Z" fill="white"/>
<g clip-path="url(#clip0_1_17071)">
<path d="M22.6667 39.8L19.6 37.2L18.7333 38.2L21.8 40.8L22.6667 39.8ZM13.2667 38.2666L12.4 37.2666L9.33334 39.8L10.2 40.8L13.2667 38.2666ZM16.3333 41.3333H15.3333V45.3333L18.4667 47.2666L19 46.4666L16.3333 44.8666V41.3333ZM16 38.6666C12.6667 38.6666 10 41.3333 10 44.6666C10 48 12.6667 50.6666 16 50.6666C19.3333 50.6666 22 48 22 44.6666C22 41.3333 19.3333 38.6666 16 38.6666ZM16 49.3333C13.4 49.3333 11.3333 47.2666 11.3333 44.6666C11.3333 42.0666 13.4 40 16 40C18.6 40 20.6667 42.0666 20.6667 44.6666C20.6667 47.2666 18.6 49.3333 16 49.3333Z" fill="white"/>
</g>
<path d="M28.468 48V47.388L31.96 43.968C32.28 43.656 32.52 43.384 32.68 43.152C32.84 42.912 32.948 42.688 33.004 42.48C33.06 42.272 33.088 42.076 33.088 41.892C33.088 41.404 32.92 41.02 32.584 40.74C32.256 40.46 31.768 40.32 31.12 40.32C30.624 40.32 30.184 40.396 29.8 40.548C29.424 40.7 29.1 40.936 28.828 41.256L28.216 40.728C28.544 40.344 28.964 40.048 29.476 39.84C29.988 39.632 30.56 39.528 31.192 39.528C31.76 39.528 32.252 39.62 32.668 39.804C33.084 39.98 33.404 40.24 33.628 40.584C33.86 40.928 33.976 41.332 33.976 41.796C33.976 42.068 33.936 42.336 33.856 42.6C33.784 42.864 33.648 43.144 33.448 43.44C33.256 43.728 32.972 44.056 32.596 44.424L29.392 47.568L29.152 47.232H34.36V48H28.468ZM35.2883 48V47.388L38.7803 43.968C39.1003 43.656 39.3403 43.384 39.5003 43.152C39.6603 42.912 39.7683 42.688 39.8243 42.48C39.8803 42.272 39.9083 42.076 39.9083 41.892C39.9083 41.404 39.7403 41.02 39.4043 40.74C39.0763 40.46 38.5883 40.32 37.9403 40.32C37.4443 40.32 37.0043 40.396 36.6203 40.548C36.2443 40.7 35.9203 40.936 35.6483 41.256L35.0363 40.728C35.3643 40.344 35.7843 40.048 36.2963 39.84C36.8083 39.632 37.3803 39.528 38.0123 39.528C38.5803 39.528 39.0723 39.62 39.4883 39.804C39.9043 39.98 40.2243 40.24 40.4483 40.584C40.6803 40.928 40.7963 41.332 40.7963 41.796C40.7963 42.068 40.7563 42.336 40.6763 42.6C40.6043 42.864 40.4683 43.144 40.2683 43.44C40.0763 43.728 39.7923 44.056 39.4163 44.424L36.2123 47.568L35.9723 47.232H41.1803V48H35.2883ZM46.0446 41.64C46.5566 41.64 47.0046 41.74 47.3886 41.94C47.7806 42.132 48.0846 42.428 48.3006 42.828C48.5246 43.228 48.6366 43.732 48.6366 44.34V48H47.7846V44.424C47.7846 43.76 47.6166 43.26 47.2806 42.924C46.9526 42.58 46.4886 42.408 45.8886 42.408C45.4406 42.408 45.0486 42.5 44.7126 42.684C44.3846 42.86 44.1286 43.12 43.9446 43.464C43.7686 43.8 43.6806 44.208 43.6806 44.688V48H42.8286V39.096H43.6806V43.428L43.5126 43.104C43.7126 42.648 44.0326 42.292 44.4726 42.036C44.9126 41.772 45.4366 41.64 46.0446 41.64ZM56.1666 48.072C55.5666 48.072 54.9946 47.976 54.4506 47.784C53.9066 47.584 53.4746 47.32 53.1546 46.992L53.5746 46.308C53.8386 46.588 54.1986 46.82 54.6546 47.004C55.1186 47.188 55.6186 47.28 56.1546 47.28C56.8666 47.28 57.4066 47.124 57.7746 46.812C58.1506 46.492 58.3386 46.076 58.3386 45.564C58.3386 45.204 58.2506 44.896 58.0746 44.64C57.9066 44.376 57.6186 44.172 57.2106 44.028C56.8026 43.884 56.2426 43.812 55.5306 43.812H53.7426L54.1746 39.6H58.7706V40.368H54.5226L54.9666 39.948L54.5946 43.476L54.1506 43.044H55.7226C56.5706 43.044 57.2506 43.148 57.7626 43.356C58.2746 43.564 58.6426 43.856 58.8666 44.232C59.0986 44.6 59.2146 45.032 59.2146 45.528C59.2146 46 59.1026 46.432 58.8786 46.824C58.6546 47.208 58.3186 47.512 57.8706 47.736C57.4226 47.96 56.8546 48.072 56.1666 48.072ZM62.9049 48.072C62.3049 48.072 61.7329 47.976 61.1889 47.784C60.6449 47.584 60.2129 47.32 59.8929 46.992L60.3129 46.308C60.5769 46.588 60.9369 46.82 61.3929 47.004C61.8569 47.188 62.3569 47.28 62.8929 47.28C63.6049 47.28 64.1449 47.124 64.5129 46.812C64.8889 46.492 65.0769 46.076 65.0769 45.564C65.0769 45.204 64.9889 44.896 64.8129 44.64C64.6449 44.376 64.3569 44.172 63.9489 44.028C63.5409 43.884 62.9809 43.812 62.2689 43.812H60.4809L60.9129 39.6H65.5089V40.368H61.2609L61.7049 39.948L61.3329 43.476L60.8889 43.044H62.4609C63.3089 43.044 63.9889 43.148 64.5009 43.356C65.0129 43.564 65.3809 43.856 65.6049 44.232C65.8369 44.6 65.9529 45.032 65.9529 45.528C65.9529 46 65.8409 46.432 65.6169 46.824C65.3929 47.208 65.0569 47.512 64.6089 47.736C64.1609 47.96 63.5929 48.072 62.9049 48.072ZM75.4858 41.64C75.9978 41.64 76.4418 41.74 76.8178 41.94C77.2018 42.132 77.4978 42.428 77.7058 42.828C77.9218 43.228 78.0298 43.732 78.0298 44.34V48H77.1778V44.424C77.1778 43.76 77.0178 43.26 76.6978 42.924C76.3858 42.58 75.9418 42.408 75.3658 42.408C74.9338 42.408 74.5578 42.5 74.2378 42.684C73.9258 42.86 73.6818 43.12 73.5058 43.464C73.3378 43.8 73.2538 44.208 73.2538 44.688V48H72.4018V44.424C72.4018 43.76 72.2418 43.26 71.9218 42.924C71.6018 42.58 71.1538 42.408 70.5778 42.408C70.1538 42.408 69.7818 42.5 69.4618 42.684C69.1418 42.86 68.8938 43.12 68.7178 43.464C68.5498 43.8 68.4658 44.208 68.4658 44.688V48H67.6138V41.7H68.4298V43.404L68.2978 43.104C68.4898 42.648 68.7978 42.292 69.2218 42.036C69.6538 41.772 70.1618 41.64 70.7458 41.64C71.3618 41.64 71.8858 41.796 72.3178 42.108C72.7498 42.412 73.0298 42.872 73.1578 43.488L72.8218 43.356C73.0058 42.844 73.3298 42.432 73.7938 42.12C74.2658 41.8 74.8298 41.64 75.4858 41.64ZM82.761 48V47.388L86.253 43.968C86.573 43.656 86.813 43.384 86.973 43.152C87.133 42.912 87.241 42.688 87.297 42.48C87.353 42.272 87.381 42.076 87.381 41.892C87.381 41.404 87.213 41.02 86.877 40.74C86.549 40.46 86.061 40.32 85.413 40.32C84.917 40.32 84.477 40.396 84.093 40.548C83.717 40.7 83.393 40.936 83.121 41.256L82.509 40.728C82.837 40.344 83.257 40.048 83.769 39.84C84.281 39.632 84.853 39.528 85.485 39.528C86.053 39.528 86.545 39.62 86.961 39.804C87.377 39.98 87.697 40.24 87.921 40.584C88.153 40.928 88.269 41.332 88.269 41.796C88.269 42.068 88.229 42.336 88.149 42.6C88.077 42.864 87.941 43.144 87.741 43.44C87.549 43.728 87.265 44.056 86.889 44.424L83.685 47.568L83.445 47.232H88.653V48H82.761ZM93.0618 48.072C92.4138 48.072 91.8378 47.904 91.3338 47.568C90.8298 47.224 90.4338 46.736 90.1458 46.104C89.8578 45.464 89.7138 44.696 89.7138 43.8C89.7138 42.904 89.8578 42.14 90.1458 41.508C90.4338 40.868 90.8298 40.38 91.3338 40.044C91.8378 39.7 92.4138 39.528 93.0618 39.528C93.7098 39.528 94.2858 39.7 94.7898 40.044C95.2938 40.38 95.6898 40.868 95.9778 41.508C96.2738 42.14 96.4218 42.904 96.4218 43.8C96.4218 44.696 96.2738 45.464 95.9778 46.104C95.6898 46.736 95.2938 47.224 94.7898 47.568C94.2858 47.904 93.7098 48.072 93.0618 48.072ZM93.0618 47.28C93.5578 47.28 93.9898 47.148 94.3578 46.884C94.7258 46.612 95.0138 46.22 95.2218 45.708C95.4298 45.188 95.5338 44.552 95.5338 43.8C95.5338 43.048 95.4298 42.416 95.2218 41.904C95.0138 41.384 94.7258 40.992 94.3578 40.728C93.9898 40.456 93.5578 40.32 93.0618 40.32C92.5818 40.32 92.1538 40.456 91.7778 40.728C91.4018 40.992 91.1098 41.384 90.9018 41.904C90.6938 42.416 90.5898 43.048 90.5898 43.8C90.5898 44.552 90.6938 45.188 90.9018 45.708C91.1098 46.22 91.4018 46.612 91.7778 46.884C92.1538 47.148 92.5818 47.28 93.0618 47.28ZM99.9152 48.06C99.3952 48.06 98.9032 47.988 98.4392 47.844C97.9752 47.692 97.6112 47.504 97.3472 47.28L97.7312 46.608C97.9872 46.8 98.3152 46.968 98.7152 47.112C99.1152 47.248 99.5352 47.316 99.9752 47.316C100.575 47.316 101.007 47.224 101.271 47.04C101.535 46.848 101.667 46.596 101.667 46.284C101.667 46.052 101.591 45.872 101.439 45.744C101.295 45.608 101.103 45.508 100.863 45.444C100.623 45.372 100.355 45.312 100.059 45.264C99.7632 45.216 99.4672 45.16 99.1712 45.096C98.8832 45.032 98.6192 44.94 98.3792 44.82C98.1392 44.692 97.9432 44.52 97.7912 44.304C97.6472 44.088 97.5752 43.8 97.5752 43.44C97.5752 43.096 97.6712 42.788 97.8632 42.516C98.0552 42.244 98.3352 42.032 98.7032 41.88C99.0792 41.72 99.5352 41.64 100.071 41.64C100.479 41.64 100.887 41.696 101.295 41.808C101.703 41.912 102.039 42.052 102.303 42.228L101.931 42.912C101.651 42.72 101.351 42.584 101.031 42.504C100.711 42.416 100.391 42.372 100.071 42.372C99.5032 42.372 99.0832 42.472 98.8112 42.672C98.5472 42.864 98.4152 43.112 98.4152 43.416C98.4152 43.656 98.4872 43.844 98.6312 43.98C98.7832 44.116 98.9792 44.224 99.2192 44.304C99.4672 44.376 99.7352 44.436 100.023 44.484C100.319 44.532 100.611 44.592 100.899 44.664C101.195 44.728 101.463 44.82 101.703 44.94C101.951 45.052 102.147 45.216 102.291 45.432C102.443 45.64 102.519 45.916 102.519 46.26C102.519 46.628 102.415 46.948 102.207 47.22C102.007 47.484 101.711 47.692 101.319 47.844C100.935 47.988 100.467 48.06 99.9152 48.06ZM107.223 48V41.7H108.039V43.416L107.955 43.116C108.131 42.636 108.427 42.272 108.843 42.024C109.259 41.768 109.775 41.64 110.391 41.64V42.468C110.359 42.468 110.327 42.468 110.295 42.468C110.263 42.46 110.231 42.456 110.199 42.456C109.535 42.456 109.015 42.66 108.639 43.068C108.263 43.468 108.075 44.04 108.075 44.784V48H107.223ZM114.563 48.06C113.907 48.06 113.331 47.924 112.835 47.652C112.339 47.372 111.951 46.992 111.671 46.512C111.391 46.024 111.251 45.468 111.251 44.844C111.251 44.22 111.383 43.668 111.647 43.188C111.919 42.708 112.287 42.332 112.751 42.06C113.223 41.78 113.751 41.64 114.335 41.64C114.927 41.64 115.451 41.776 115.907 42.048C116.371 42.312 116.735 42.688 116.999 43.176C117.263 43.656 117.395 44.212 117.395 44.844C117.395 44.884 117.391 44.928 117.383 44.976C117.383 45.016 117.383 45.06 117.383 45.108H111.899V44.472H116.927L116.591 44.724C116.591 44.268 116.491 43.864 116.291 43.512C116.099 43.152 115.835 42.872 115.499 42.672C115.163 42.472 114.775 42.372 114.335 42.372C113.903 42.372 113.515 42.472 113.171 42.672C112.827 42.872 112.559 43.152 112.367 43.512C112.175 43.872 112.079 44.284 112.079 44.748V44.88C112.079 45.36 112.183 45.784 112.391 46.152C112.607 46.512 112.903 46.796 113.279 47.004C113.663 47.204 114.099 47.304 114.587 47.304C114.971 47.304 115.327 47.236 115.655 47.1C115.991 46.964 116.279 46.756 116.519 46.476L116.999 47.028C116.719 47.364 116.367 47.62 115.943 47.796C115.527 47.972 115.067 48.06 114.563 48.06ZM127.001 41.64C127.513 41.64 127.957 41.74 128.333 41.94C128.717 42.132 129.013 42.428 129.221 42.828C129.437 43.228 129.545 43.732 129.545 44.34V48H128.693V44.424C128.693 43.76 128.533 43.26 128.213 42.924C127.901 42.58 127.457 42.408 126.881 42.408C126.449 42.408 126.073 42.5 125.753 42.684C125.441 42.86 125.197 43.12 125.021 43.464C124.853 43.8 124.769 44.208 124.769 44.688V48H123.917V44.424C123.917 43.76 123.757 43.26 123.437 42.924C123.117 42.58 122.669 42.408 122.093 42.408C121.669 42.408 121.297 42.5 120.977 42.684C120.657 42.86 120.409 43.12 120.233 43.464C120.065 43.8 119.981 44.208 119.981 44.688V48H119.129V41.7H119.945V43.404L119.813 43.104C120.005 42.648 120.313 42.292 120.737 42.036C121.169 41.772 121.677 41.64 122.261 41.64C122.877 41.64 123.401 41.796 123.833 42.108C124.265 42.412 124.545 42.872 124.673 43.488L124.337 43.356C124.521 42.844 124.845 42.432 125.309 42.12C125.781 41.8 126.345 41.64 127.001 41.64ZM135.804 48V46.608L135.768 46.38V44.052C135.768 43.516 135.616 43.104 135.312 42.816C135.016 42.528 134.572 42.384 133.98 42.384C133.572 42.384 133.184 42.452 132.816 42.588C132.448 42.724 132.136 42.904 131.88 43.128L131.496 42.492C131.816 42.22 132.2 42.012 132.648 41.868C133.096 41.716 133.568 41.64 134.064 41.64C134.88 41.64 135.508 41.844 135.948 42.252C136.396 42.652 136.62 43.264 136.62 44.088V48H135.804ZM133.632 48.06C133.16 48.06 132.748 47.984 132.396 47.832C132.052 47.672 131.788 47.456 131.604 47.184C131.42 46.904 131.328 46.584 131.328 46.224C131.328 45.896 131.404 45.6 131.556 45.336C131.716 45.064 131.972 44.848 132.324 44.688C132.684 44.52 133.164 44.436 133.764 44.436H135.936V45.072H133.788C133.18 45.072 132.756 45.18 132.516 45.396C132.284 45.612 132.168 45.88 132.168 46.2C132.168 46.56 132.308 46.848 132.588 47.064C132.868 47.28 133.26 47.388 133.764 47.388C134.244 47.388 134.656 47.28 135 47.064C135.352 46.84 135.608 46.52 135.768 46.104L135.96 46.692C135.8 47.108 135.52 47.44 135.12 47.688C134.728 47.936 134.232 48.06 133.632 48.06ZM138.934 48V41.7H139.786V48H138.934ZM139.366 40.308C139.19 40.308 139.042 40.248 138.922 40.128C138.802 40.008 138.742 39.864 138.742 39.696C138.742 39.528 138.802 39.388 138.922 39.276C139.042 39.156 139.19 39.096 139.366 39.096C139.542 39.096 139.69 39.152 139.81 39.264C139.93 39.376 139.99 39.516 139.99 39.684C139.99 39.86 139.93 40.008 139.81 40.128C139.698 40.248 139.55 40.308 139.366 40.308ZM145.373 41.64C145.885 41.64 146.333 41.74 146.717 41.94C147.109 42.132 147.413 42.428 147.629 42.828C147.853 43.228 147.965 43.732 147.965 44.34V48H147.113V44.424C147.113 43.76 146.945 43.26 146.609 42.924C146.281 42.58 145.817 42.408 145.217 42.408C144.769 42.408 144.377 42.5 144.041 42.684C143.713 42.86 143.457 43.12 143.273 43.464C143.097 43.8 143.009 44.208 143.009 44.688V48H142.157V41.7H142.973V43.428L142.841 43.104C143.041 42.648 143.361 42.292 143.801 42.036C144.241 41.772 144.765 41.64 145.373 41.64ZM150.266 48V41.7H151.118V48H150.266ZM150.698 40.308C150.522 40.308 150.374 40.248 150.254 40.128C150.134 40.008 150.074 39.864 150.074 39.696C150.074 39.528 150.134 39.388 150.254 39.276C150.374 39.156 150.522 39.096 150.698 39.096C150.874 39.096 151.022 39.152 151.142 39.264C151.262 39.376 151.322 39.516 151.322 39.684C151.322 39.86 151.262 40.008 151.142 40.128C151.03 40.248 150.882 40.308 150.698 40.308ZM156.705 41.64C157.217 41.64 157.665 41.74 158.049 41.94C158.441 42.132 158.745 42.428 158.961 42.828C159.185 43.228 159.297 43.732 159.297 44.34V48H158.445V44.424C158.445 43.76 158.277 43.26 157.941 42.924C157.613 42.58 157.149 42.408 156.549 42.408C156.101 42.408 155.709 42.5 155.373 42.684C155.045 42.86 154.789 43.12 154.605 43.464C154.429 43.8 154.341 44.208 154.341 44.688V48H153.489V41.7H154.305V43.428L154.173 43.104C154.373 42.648 154.693 42.292 155.133 42.036C155.573 41.772 156.097 41.64 156.705 41.64ZM164.286 50.388C163.71 50.388 163.158 50.304 162.63 50.136C162.102 49.968 161.674 49.728 161.346 49.416L161.778 48.768C162.074 49.032 162.438 49.24 162.87 49.392C163.31 49.552 163.774 49.632 164.262 49.632C165.062 49.632 165.65 49.444 166.026 49.068C166.402 48.7 166.59 48.124 166.59 47.34V45.768L166.71 44.688L166.626 43.608V41.7H167.442V47.232C167.442 48.32 167.174 49.116 166.638 49.62C166.11 50.132 165.326 50.388 164.286 50.388ZM164.13 47.76C163.53 47.76 162.99 47.632 162.51 47.376C162.03 47.112 161.65 46.748 161.37 46.284C161.098 45.82 160.962 45.288 160.962 44.688C160.962 44.088 161.098 43.56 161.37 43.104C161.65 42.64 162.03 42.28 162.51 42.024C162.99 41.768 163.53 41.64 164.13 41.64C164.69 41.64 165.194 41.756 165.642 41.988C166.09 42.22 166.446 42.564 166.71 43.02C166.974 43.476 167.106 44.032 167.106 44.688C167.106 45.344 166.974 45.9 166.71 46.356C166.446 46.812 166.09 47.16 165.642 47.4C165.194 47.64 164.69 47.76 164.13 47.76ZM164.214 47.004C164.678 47.004 165.09 46.908 165.45 46.716C165.81 46.516 166.094 46.244 166.302 45.9C166.51 45.548 166.614 45.144 166.614 44.688C166.614 44.232 166.51 43.832 166.302 43.488C166.094 43.144 165.81 42.876 165.45 42.684C165.09 42.484 164.678 42.384 164.214 42.384C163.758 42.384 163.346 42.484 162.978 42.684C162.618 42.876 162.334 43.144 162.126 43.488C161.926 43.832 161.826 44.232 161.826 44.688C161.826 45.144 161.926 45.548 162.126 45.9C162.334 46.244 162.618 46.516 162.978 46.716C163.346 46.908 163.758 47.004 164.214 47.004Z" fill="white"/>
<rect x="242.5" y="16.5" width="88" height="27" rx="3.5" stroke="white"/>
<path d="M256.106 34L252.434 25.6H254.126L257.402 33.196H256.43L259.742 25.6H261.302L257.642 34H256.106ZM262.103 34V27.592H263.603V34H262.103ZM262.859 26.536C262.579 26.536 262.347 26.448 262.163 26.272C261.987 26.096 261.899 25.884 261.899 25.636C261.899 25.38 261.987 25.168 262.163 25C262.347 24.824 262.579 24.736 262.859 24.736C263.139 24.736 263.367 24.82 263.543 24.988C263.727 25.148 263.819 25.352 263.819 25.6C263.819 25.864 263.731 26.088 263.555 26.272C263.379 26.448 263.147 26.536 262.859 26.536ZM268.584 34.084C267.872 34.084 267.248 33.944 266.712 33.664C266.184 33.376 265.772 32.984 265.476 32.488C265.188 31.992 265.044 31.428 265.044 30.796C265.044 30.156 265.184 29.592 265.464 29.104C265.752 28.608 266.144 28.22 266.64 27.94C267.144 27.66 267.716 27.52 268.356 27.52C268.98 27.52 269.536 27.656 270.024 27.928C270.512 28.2 270.896 28.584 271.176 29.08C271.456 29.576 271.596 30.16 271.596 30.832C271.596 30.896 271.592 30.968 271.584 31.048C271.584 31.128 271.58 31.204 271.572 31.276H266.232V30.28H270.78L270.192 30.592C270.2 30.224 270.124 29.9 269.964 29.62C269.804 29.34 269.584 29.12 269.304 28.96C269.032 28.8 268.716 28.72 268.356 28.72C267.988 28.72 267.664 28.8 267.384 28.96C267.112 29.12 266.896 29.344 266.736 29.632C266.584 29.912 266.508 30.244 266.508 30.628V30.868C266.508 31.252 266.596 31.592 266.772 31.888C266.948 32.184 267.196 32.412 267.516 32.572C267.836 32.732 268.204 32.812 268.62 32.812C268.98 32.812 269.304 32.756 269.592 32.644C269.88 32.532 270.136 32.356 270.36 32.116L271.164 33.04C270.876 33.376 270.512 33.636 270.072 33.82C269.64 33.996 269.144 34.084 268.584 34.084ZM274.336 34L271.984 27.592H273.4L275.416 33.244H274.744L276.856 27.592H278.116L280.168 33.244H279.508L281.584 27.592H282.916L280.552 34H279.112L277.24 28.996H277.684L275.776 34H274.336ZM291.211 34V32.704L291.127 32.428V30.16C291.127 29.72 290.995 29.38 290.731 29.14C290.467 28.892 290.067 28.768 289.531 28.768C289.171 28.768 288.815 28.824 288.463 28.936C288.119 29.048 287.827 29.204 287.587 29.404L286.999 28.312C287.343 28.048 287.751 27.852 288.223 27.724C288.703 27.588 289.199 27.52 289.711 27.52C290.639 27.52 291.355 27.744 291.859 28.192C292.371 28.632 292.627 29.316 292.627 30.244V34H291.211ZM289.195 34.084C288.715 34.084 288.295 34.004 287.935 33.844C287.575 33.676 287.295 33.448 287.095 33.16C286.903 32.864 286.807 32.532 286.807 32.164C286.807 31.804 286.891 31.48 287.059 31.192C287.235 30.904 287.519 30.676 287.911 30.508C288.303 30.34 288.823 30.256 289.471 30.256H291.331V31.252H289.579C289.067 31.252 288.723 31.336 288.547 31.504C288.371 31.664 288.283 31.864 288.283 32.104C288.283 32.376 288.391 32.592 288.607 32.752C288.823 32.912 289.123 32.992 289.507 32.992C289.875 32.992 290.203 32.908 290.491 32.74C290.787 32.572 290.999 32.324 291.127 31.996L291.379 32.896C291.235 33.272 290.975 33.564 290.599 33.772C290.231 33.98 289.763 34.084 289.195 34.084ZM294.552 34V25.096H296.052V34H294.552ZM298.021 34V25.096H299.521V34H298.021Z" fill="white"/>
<g clip-path="url(#clip1_1_17071)">
<path d="M315 25.3334L314.06 26.2734L317.113 29.3334H306.333V30.6667H317.113L314.053 33.7267L315 34.6667L319.667 30L315 25.3334Z" fill="white"/>
</g>
<defs>
<clipPath id="clip0_1_17071">
<rect width="16" height="16" fill="white" transform="translate(8 36)"/>
</clipPath>
<clipPath id="clip1_1_17071">
<rect width="16" height="16" fill="white" transform="translate(305 22)"/>
</clipPath>
</defs>
</svg>
