<svg width="343" height="60" viewBox="0 0 343 60" fill="none" xmlns="http://www.w3.org/2000/svg">
<rect width="343" height="60" rx="8" fill="#FD6E87"/>
<path d="M11.904 24V14.192H8.064V12.8H17.328V14.192H13.488V24H11.904ZM18.6435 24V15.52H20.1155V17.824L19.9715 17.248C20.2062 16.6613 20.6008 16.2133 21.1555 15.904C21.7102 15.5947 22.3928 15.44 23.2035 15.44V16.928C23.1395 16.9173 23.0755 16.912 23.0115 16.912C22.9582 16.912 22.9048 16.912 22.8515 16.912C22.0302 16.912 21.3795 17.1573 20.8995 17.648C20.4195 18.1387 20.1795 18.848 20.1795 19.776V24H18.6435ZM28.7945 24.096C27.8878 24.096 27.0878 23.9093 26.3945 23.536C25.7118 23.1627 25.1785 22.6507 24.7945 22C24.4212 21.3493 24.2345 20.6027 24.2345 19.76C24.2345 18.9173 24.4158 18.1707 24.7785 17.52C25.1518 16.8693 25.6585 16.3627 26.2985 16C26.9492 15.6267 27.6798 15.44 28.4905 15.44C29.3118 15.44 30.0372 15.6213 30.6665 15.984C31.2958 16.3467 31.7865 16.8587 32.1385 17.52C32.5012 18.1707 32.6825 18.9333 32.6825 19.808C32.6825 19.872 32.6772 19.9467 32.6665 20.032C32.6665 20.1173 32.6612 20.1973 32.6505 20.272H25.4345V19.168H31.8505L31.2265 19.552C31.2372 19.008 31.1252 18.5227 30.8905 18.096C30.6558 17.6693 30.3305 17.3387 29.9145 17.104C29.5092 16.8587 29.0345 16.736 28.4905 16.736C27.9572 16.736 27.4825 16.8587 27.0665 17.104C26.6505 17.3387 26.3252 17.6747 26.0905 18.112C25.8558 18.5387 25.7385 19.0293 25.7385 19.584V19.84C25.7385 20.4053 25.8665 20.912 26.1225 21.36C26.3892 21.7973 26.7572 22.1387 27.2265 22.384C27.6958 22.6293 28.2345 22.752 28.8425 22.752C29.3438 22.752 29.7972 22.6667 30.2025 22.496C30.6185 22.3253 30.9812 22.0693 31.2905 21.728L32.1385 22.72C31.7545 23.168 31.2745 23.5093 30.6985 23.744C30.1332 23.9787 29.4985 24.096 28.7945 24.096ZM39.3434 15.44C40.0367 15.44 40.6447 15.5733 41.1674 15.84C41.7007 16.1067 42.1167 16.512 42.4154 17.056C42.714 17.6 42.8634 18.288 42.8634 19.12V24H41.3274V19.296C41.3274 18.4747 41.1247 17.856 40.7194 17.44C40.3247 17.024 39.7647 16.816 39.0394 16.816C38.4954 16.816 38.0207 16.9227 37.6154 17.136C37.21 17.3493 36.8954 17.664 36.6714 18.08C36.458 18.496 36.3514 19.0133 36.3514 19.632V24H34.8154V15.52H36.2874V17.808L36.0474 17.2C36.3247 16.6453 36.7514 16.2133 37.3274 15.904C37.9034 15.5947 38.5754 15.44 39.3434 15.44ZM49.21 24.096C48.3887 24.096 47.6527 23.9147 47.002 23.552C46.362 23.1893 45.8553 22.6827 45.482 22.032C45.1087 21.3813 44.922 20.624 44.922 19.76C44.922 18.896 45.1087 18.144 45.482 17.504C45.8553 16.8533 46.362 16.3467 47.002 15.984C47.6527 15.6213 48.3887 15.44 49.21 15.44C49.9247 15.44 50.57 15.6 51.146 15.92C51.722 16.24 52.1807 16.72 52.522 17.36C52.874 18 53.05 18.8 53.05 19.76C53.05 20.72 52.8793 21.52 52.538 22.16C52.2073 22.8 51.754 23.2853 51.178 23.616C50.602 23.936 49.946 24.096 49.21 24.096ZM49.338 22.752C49.8713 22.752 50.3513 22.6293 50.778 22.384C51.2153 22.1387 51.5567 21.792 51.802 21.344C52.058 20.8853 52.186 20.3573 52.186 19.76C52.186 19.152 52.058 18.6293 51.802 18.192C51.5567 17.744 51.2153 17.3973 50.778 17.152C50.3513 16.9067 49.8713 16.784 49.338 16.784C48.794 16.784 48.3087 16.9067 47.882 17.152C47.4553 17.3973 47.114 17.744 46.858 18.192C46.602 18.6293 46.474 19.152 46.474 19.76C46.474 20.3573 46.602 20.8853 46.858 21.344C47.114 21.792 47.4553 22.1387 47.882 22.384C48.3087 22.6293 48.794 22.752 49.338 22.752ZM52.234 24V21.712L52.33 19.744L52.17 17.776V12.128H53.706V24H52.234ZM56.6123 24V15.52H58.1483V24H56.6123ZM57.3803 13.888C57.0816 13.888 56.8309 13.792 56.6283 13.6C56.4363 13.408 56.3403 13.1733 56.3403 12.896C56.3403 12.608 56.4363 12.368 56.6283 12.176C56.8309 11.984 57.0816 11.888 57.3803 11.888C57.6789 11.888 57.9243 11.984 58.1163 12.176C58.3189 12.3573 58.4203 12.5867 58.4203 12.864C58.4203 13.152 58.3243 13.3973 58.1323 13.6C57.9403 13.792 57.6896 13.888 57.3803 13.888ZM65.609 15.44C66.3023 15.44 66.9103 15.5733 67.433 15.84C67.9663 16.1067 68.3823 16.512 68.681 17.056C68.9797 17.6 69.129 18.288 69.129 19.12V24H67.593V19.296C67.593 18.4747 67.3903 17.856 66.985 17.44C66.5903 17.024 66.0303 16.816 65.305 16.816C64.761 16.816 64.2863 16.9227 63.881 17.136C63.4757 17.3493 63.161 17.664 62.937 18.08C62.7237 18.496 62.617 19.0133 62.617 19.632V24H61.081V15.52H62.553V17.808L62.313 17.2C62.5903 16.6453 63.017 16.2133 63.593 15.904C64.169 15.5947 64.841 15.44 65.609 15.44ZM75.6836 27.2C74.905 27.2 74.1476 27.088 73.4116 26.864C72.6863 26.6507 72.0943 26.3413 71.6356 25.936L72.3716 24.752C72.7663 25.0933 73.2516 25.36 73.8276 25.552C74.4036 25.7547 75.0063 25.856 75.6356 25.856C76.6383 25.856 77.3743 25.6213 77.8436 25.152C78.313 24.6827 78.5476 23.968 78.5476 23.008V21.216L78.7076 19.536L78.6276 17.84V15.52H80.0836V22.848C80.0836 24.3413 79.7103 25.44 78.9636 26.144C78.217 26.848 77.1236 27.2 75.6836 27.2ZM75.4916 23.648C74.6703 23.648 73.9343 23.4773 73.2836 23.136C72.6436 22.784 72.1316 22.2987 71.7476 21.68C71.3743 21.0613 71.1876 20.3467 71.1876 19.536C71.1876 18.7147 71.3743 18 71.7476 17.392C72.1316 16.7733 72.6436 16.2933 73.2836 15.952C73.9343 15.6107 74.6703 15.44 75.4916 15.44C76.217 15.44 76.8783 15.5893 77.4756 15.888C78.073 16.176 78.5476 16.624 78.8996 17.232C79.2623 17.84 79.4436 18.608 79.4436 19.536C79.4436 20.4533 79.2623 21.216 78.8996 21.824C78.5476 22.432 78.073 22.8907 77.4756 23.2C76.8783 23.4987 76.217 23.648 75.4916 23.648ZM75.6676 22.304C76.233 22.304 76.7343 22.1867 77.1716 21.952C77.609 21.7173 77.9503 21.392 78.1956 20.976C78.4516 20.56 78.5796 20.08 78.5796 19.536C78.5796 18.992 78.4516 18.512 78.1956 18.096C77.9503 17.68 77.609 17.36 77.1716 17.136C76.7343 16.9013 76.233 16.784 75.6676 16.784C75.1023 16.784 74.5956 16.9013 74.1476 17.136C73.7103 17.36 73.3636 17.68 73.1076 18.096C72.8623 18.512 72.7396 18.992 72.7396 19.536C72.7396 20.08 72.8623 20.56 73.1076 20.976C73.3636 21.392 73.7103 21.7173 74.1476 21.952C74.5956 22.1867 75.1023 22.304 75.6676 22.304ZM87.5394 24V12.8H91.9074C92.8887 12.8 93.726 12.9547 94.4194 13.264C95.1127 13.5733 95.646 14.0213 96.0194 14.608C96.3927 15.1947 96.5794 15.8933 96.5794 16.704C96.5794 17.5147 96.3927 18.2133 96.0194 18.8C95.646 19.376 95.1127 19.824 94.4194 20.144C93.726 20.4533 92.8887 20.608 91.9074 20.608H88.4194L89.1394 19.856V24H87.5394ZM89.1394 20.016L88.4194 19.216H91.8594C92.8834 19.216 93.6567 18.9973 94.1794 18.56C94.7127 18.1227 94.9794 17.504 94.9794 16.704C94.9794 15.904 94.7127 15.2853 94.1794 14.848C93.6567 14.4107 92.8834 14.192 91.8594 14.192H88.4194L89.1394 13.392V20.016ZM98.5498 24V15.52H100.022V17.824L99.8778 17.248C100.112 16.6613 100.507 16.2133 101.062 15.904C101.616 15.5947 102.299 15.44 103.11 15.44V16.928C103.046 16.9173 102.982 16.912 102.918 16.912C102.864 16.912 102.811 16.912 102.758 16.912C101.936 16.912 101.286 17.1573 100.806 17.648C100.326 18.1387 100.086 18.848 100.086 19.776V24H98.5498ZM108.557 24.096C107.703 24.096 106.946 23.9093 106.285 23.536C105.623 23.1627 105.101 22.6507 104.717 22C104.333 21.3387 104.141 20.592 104.141 19.76C104.141 18.9173 104.333 18.1707 104.717 17.52C105.101 16.8693 105.623 16.3627 106.285 16C106.946 15.6267 107.703 15.44 108.557 15.44C109.399 15.44 110.151 15.6267 110.813 16C111.485 16.3627 112.007 16.8693 112.381 17.52C112.765 18.16 112.957 18.9067 112.957 19.76C112.957 20.6027 112.765 21.3493 112.381 22C112.007 22.6507 111.485 23.1627 110.813 23.536C110.151 23.9093 109.399 24.096 108.557 24.096ZM108.557 22.752C109.101 22.752 109.586 22.6293 110.013 22.384C110.45 22.1387 110.791 21.792 111.037 21.344C111.282 20.8853 111.405 20.3573 111.405 19.76C111.405 19.152 111.282 18.6293 111.037 18.192C110.791 17.744 110.45 17.3973 110.013 17.152C109.586 16.9067 109.101 16.784 108.557 16.784C108.013 16.784 107.527 16.9067 107.101 17.152C106.674 17.3973 106.333 17.744 106.077 18.192C105.821 18.6293 105.693 19.152 105.693 19.76C105.693 20.3573 105.821 20.8853 106.077 21.344C106.333 21.792 106.674 22.1387 107.101 22.384C107.527 22.6293 108.013 22.752 108.557 22.752ZM118.585 24.096C117.764 24.096 117.028 23.9147 116.377 23.552C115.737 23.1893 115.23 22.6827 114.857 22.032C114.484 21.3813 114.297 20.624 114.297 19.76C114.297 18.896 114.484 18.144 114.857 17.504C115.23 16.8533 115.737 16.3467 116.377 15.984C117.028 15.6213 117.764 15.44 118.585 15.44C119.3 15.44 119.945 15.6 120.521 15.92C121.097 16.24 121.556 16.72 121.897 17.36C122.249 18 122.425 18.8 122.425 19.76C122.425 20.72 122.254 21.52 121.913 22.16C121.582 22.8 121.129 23.2853 120.553 23.616C119.977 23.936 119.321 24.096 118.585 24.096ZM118.713 22.752C119.246 22.752 119.726 22.6293 120.153 22.384C120.59 22.1387 120.932 21.792 121.177 21.344C121.433 20.8853 121.561 20.3573 121.561 19.76C121.561 19.152 121.433 18.6293 121.177 18.192C120.932 17.744 120.59 17.3973 120.153 17.152C119.726 16.9067 119.246 16.784 118.713 16.784C118.169 16.784 117.684 16.9067 117.257 17.152C116.83 17.3973 116.489 17.744 116.233 18.192C115.977 18.6293 115.849 19.152 115.849 19.76C115.849 20.3573 115.977 20.8853 116.233 21.344C116.489 21.792 116.83 22.1387 117.257 22.384C117.684 22.6293 118.169 22.752 118.713 22.752ZM121.609 24V21.712L121.705 19.744L121.545 17.776V12.128H123.081V24H121.609ZM129.555 24.096C128.83 24.096 128.19 23.9627 127.635 23.696C127.091 23.4293 126.665 23.024 126.355 22.48C126.057 21.9253 125.907 21.232 125.907 20.4V15.52H127.443V20.224C127.443 21.056 127.641 21.68 128.035 22.096C128.441 22.512 129.006 22.72 129.731 22.72C130.265 22.72 130.729 22.6133 131.123 22.4C131.518 22.176 131.822 21.856 132.035 21.44C132.249 21.0133 132.355 20.5013 132.355 19.904V15.52H133.891V24H132.435V21.712L132.675 22.32C132.398 22.8853 131.982 23.3227 131.427 23.632C130.873 23.9413 130.249 24.096 129.555 24.096ZM140.511 24.096C139.647 24.096 138.874 23.9093 138.191 23.536C137.519 23.1627 136.991 22.6507 136.607 22C136.223 21.3493 136.031 20.6027 136.031 19.76C136.031 18.9173 136.223 18.1707 136.607 17.52C136.991 16.8693 137.519 16.3627 138.191 16C138.874 15.6267 139.647 15.44 140.511 15.44C141.279 15.44 141.962 15.5947 142.559 15.904C143.167 16.2027 143.637 16.6507 143.967 17.248L142.799 18C142.522 17.584 142.181 17.28 141.775 17.088C141.381 16.8853 140.954 16.784 140.495 16.784C139.941 16.784 139.445 16.9067 139.007 17.152C138.57 17.3973 138.223 17.744 137.967 18.192C137.711 18.6293 137.583 19.152 137.583 19.76C137.583 20.368 137.711 20.896 137.967 21.344C138.223 21.792 138.57 22.1387 139.007 22.384C139.445 22.6293 139.941 22.752 140.495 22.752C140.954 22.752 141.381 22.656 141.775 22.464C142.181 22.2613 142.522 21.952 142.799 21.536L143.967 22.272C143.637 22.8587 143.167 23.312 142.559 23.632C141.962 23.9413 141.279 24.096 140.511 24.096ZM148.977 24.096C148.124 24.096 147.463 23.8667 146.993 23.408C146.524 22.9493 146.289 22.2933 146.289 21.44V13.664H147.825V21.376C147.825 21.8347 147.937 22.1867 148.161 22.432C148.396 22.6773 148.727 22.8 149.153 22.8C149.633 22.8 150.033 22.6667 150.353 22.4L150.833 23.504C150.599 23.7067 150.316 23.856 149.985 23.952C149.665 24.048 149.329 24.096 148.977 24.096ZM144.849 16.784V15.52H150.257V16.784H144.849ZM155.122 24.096C154.418 24.096 153.746 24 153.106 23.808C152.477 23.616 151.981 23.3813 151.618 23.104L152.258 21.888C152.621 22.1333 153.069 22.3413 153.602 22.512C154.136 22.6827 154.68 22.768 155.234 22.768C155.949 22.768 156.461 22.6667 156.77 22.464C157.09 22.2613 157.25 21.9787 157.25 21.616C157.25 21.3493 157.154 21.1413 156.962 20.992C156.77 20.8427 156.514 20.7307 156.194 20.656C155.885 20.5813 155.538 20.5173 155.154 20.464C154.77 20.4 154.386 20.3253 154.002 20.24C153.618 20.144 153.266 20.016 152.946 19.856C152.626 19.6853 152.37 19.456 152.178 19.168C151.986 18.8693 151.89 18.4747 151.89 17.984C151.89 17.472 152.034 17.024 152.322 16.64C152.61 16.256 153.016 15.9627 153.538 15.76C154.072 15.5467 154.701 15.44 155.426 15.44C155.981 15.44 156.541 15.5093 157.106 15.648C157.682 15.776 158.152 15.9627 158.514 16.208L157.858 17.424C157.474 17.168 157.074 16.992 156.658 16.896C156.242 16.8 155.826 16.752 155.41 16.752C154.738 16.752 154.237 16.864 153.906 17.088C153.576 17.3013 153.41 17.5787 153.41 17.92C153.41 18.208 153.506 18.432 153.698 18.592C153.901 18.7413 154.157 18.8587 154.466 18.944C154.786 19.0293 155.138 19.104 155.522 19.168C155.906 19.2213 156.29 19.296 156.674 19.392C157.058 19.4773 157.405 19.6 157.714 19.76C158.034 19.92 158.29 20.144 158.482 20.432C158.685 20.72 158.786 21.104 158.786 21.584C158.786 22.096 158.637 22.5387 158.338 22.912C158.04 23.2853 157.618 23.5787 157.074 23.792C156.53 23.9947 155.88 24.096 155.122 24.096Z" fill="white"/>
<g clip-path="url(#clip0_1_17072)">
<path d="M12.6667 43.3333H14V44.6666H12.6667V43.3333ZM22 39.9999V49.3333C22 50.0666 21.4 50.6666 20.6667 50.6666H11.3333C10.5933 50.6666 10 50.0666 10 49.3333L10.0067 39.9999C10.0067 39.2666 10.5933 38.6666 11.3333 38.6666H12V37.3333H13.3333V38.6666H18.6667V37.3333H20V38.6666H20.6667C21.4 38.6666 22 39.2666 22 39.9999ZM11.3333 41.3333H20.6667V39.9999H11.3333V41.3333ZM20.6667 49.3333V42.6666H11.3333V49.3333H20.6667ZM18 44.6666H19.3333V43.3333H18V44.6666ZM15.3333 44.6666H16.6667V43.3333H15.3333V44.6666Z" fill="white"/>
</g>
<path d="M29.368 48V39.6H30.256V47.232H34.96V48H29.368ZM40.2024 48V46.608L40.1664 46.38V44.052C40.1664 43.516 40.0144 43.104 39.7104 42.816C39.4144 42.528 38.9704 42.384 38.3784 42.384C37.9704 42.384 37.5824 42.452 37.2144 42.588C36.8464 42.724 36.5344 42.904 36.2784 43.128L35.8944 42.492C36.2144 42.22 36.5984 42.012 37.0464 41.868C37.4944 41.716 37.9664 41.64 38.4624 41.64C39.2784 41.64 39.9064 41.844 40.3464 42.252C40.7944 42.652 41.0184 43.264 41.0184 44.088V48H40.2024ZM38.0304 48.06C37.5584 48.06 37.1464 47.984 36.7944 47.832C36.4504 47.672 36.1864 47.456 36.0024 47.184C35.8184 46.904 35.7264 46.584 35.7264 46.224C35.7264 45.896 35.8024 45.6 35.9544 45.336C36.1144 45.064 36.3704 44.848 36.7224 44.688C37.0824 44.52 37.5624 44.436 38.1624 44.436H40.3344V45.072H38.1864C37.5784 45.072 37.1544 45.18 36.9144 45.396C36.6824 45.612 36.5664 45.88 36.5664 46.2C36.5664 46.56 36.7064 46.848 36.9864 47.064C37.2664 47.28 37.6584 47.388 38.1624 47.388C38.6424 47.388 39.0544 47.28 39.3984 47.064C39.7504 46.84 40.0064 46.52 40.1664 46.104L40.3584 46.692C40.1984 47.108 39.9184 47.44 39.5184 47.688C39.1264 47.936 38.6304 48.06 38.0304 48.06ZM45.0245 48.06C44.5045 48.06 44.0125 47.988 43.5485 47.844C43.0845 47.692 42.7205 47.504 42.4565 47.28L42.8405 46.608C43.0965 46.8 43.4245 46.968 43.8245 47.112C44.2245 47.248 44.6445 47.316 45.0845 47.316C45.6845 47.316 46.1165 47.224 46.3805 47.04C46.6445 46.848 46.7765 46.596 46.7765 46.284C46.7765 46.052 46.7005 45.872 46.5485 45.744C46.4045 45.608 46.2125 45.508 45.9725 45.444C45.7325 45.372 45.4645 45.312 45.1685 45.264C44.8725 45.216 44.5765 45.16 44.2805 45.096C43.9925 45.032 43.7285 44.94 43.4885 44.82C43.2485 44.692 43.0525 44.52 42.9005 44.304C42.7565 44.088 42.6845 43.8 42.6845 43.44C42.6845 43.096 42.7805 42.788 42.9725 42.516C43.1645 42.244 43.4445 42.032 43.8125 41.88C44.1885 41.72 44.6445 41.64 45.1805 41.64C45.5885 41.64 45.9965 41.696 46.4045 41.808C46.8125 41.912 47.1485 42.052 47.4125 42.228L47.0405 42.912C46.7605 42.72 46.4605 42.584 46.1405 42.504C45.8205 42.416 45.5005 42.372 45.1805 42.372C44.6125 42.372 44.1925 42.472 43.9205 42.672C43.6565 42.864 43.5245 43.112 43.5245 43.416C43.5245 43.656 43.5965 43.844 43.7405 43.98C43.8925 44.116 44.0885 44.224 44.3285 44.304C44.5765 44.376 44.8445 44.436 45.1325 44.484C45.4285 44.532 45.7205 44.592 46.0085 44.664C46.3045 44.728 46.5725 44.82 46.8125 44.94C47.0605 45.052 47.2565 45.216 47.4005 45.432C47.5525 45.64 47.6285 45.916 47.6285 46.26C47.6285 46.628 47.5245 46.948 47.3165 47.22C47.1165 47.484 46.8205 47.692 46.4285 47.844C46.0445 47.988 45.5765 48.06 45.0245 48.06ZM51.1839 48.06C50.5919 48.06 50.1359 47.9 49.8159 47.58C49.4959 47.26 49.3359 46.808 49.3359 46.224V40.308H50.1879V46.176C50.1879 46.544 50.2799 46.828 50.4639 47.028C50.6559 47.228 50.9279 47.328 51.2799 47.328C51.6559 47.328 51.9679 47.22 52.2159 47.004L52.5159 47.616C52.3479 47.768 52.1439 47.88 51.9039 47.952C51.6719 48.024 51.4319 48.06 51.1839 48.06ZM48.2079 42.408V41.7H52.1079V42.408H48.2079ZM57.3875 48V39.6H60.8075C61.7035 39.6 62.4875 39.78 63.1595 40.14C63.8395 40.492 64.3675 40.984 64.7435 41.616C65.1195 42.248 65.3075 42.976 65.3075 43.8C65.3075 44.624 65.1195 45.352 64.7435 45.984C64.3675 46.616 63.8395 47.112 63.1595 47.472C62.4875 47.824 61.7035 48 60.8075 48H57.3875ZM58.2755 47.232H60.7595C61.5035 47.232 62.1475 47.088 62.6915 46.8C63.2435 46.504 63.6715 46.1 63.9755 45.588C64.2795 45.068 64.4315 44.472 64.4315 43.8C64.4315 43.12 64.2795 42.524 63.9755 42.012C63.6715 41.5 63.2435 41.1 62.6915 40.812C62.1475 40.516 61.5035 40.368 60.7595 40.368H58.2755V47.232ZM71.0696 48V46.608L71.0336 46.38V44.052C71.0336 43.516 70.8816 43.104 70.5776 42.816C70.2816 42.528 69.8376 42.384 69.2456 42.384C68.8376 42.384 68.4496 42.452 68.0816 42.588C67.7136 42.724 67.4016 42.904 67.1456 43.128L66.7616 42.492C67.0816 42.22 67.4656 42.012 67.9136 41.868C68.3616 41.716 68.8336 41.64 69.3296 41.64C70.1456 41.64 70.7736 41.844 71.2136 42.252C71.6616 42.652 71.8856 43.264 71.8856 44.088V48H71.0696ZM68.8976 48.06C68.4256 48.06 68.0136 47.984 67.6616 47.832C67.3176 47.672 67.0536 47.456 66.8696 47.184C66.6856 46.904 66.5936 46.584 66.5936 46.224C66.5936 45.896 66.6696 45.6 66.8216 45.336C66.9816 45.064 67.2376 44.848 67.5896 44.688C67.9496 44.52 68.4296 44.436 69.0296 44.436H71.2016V45.072H69.0536C68.4456 45.072 68.0216 45.18 67.7816 45.396C67.5496 45.612 67.4336 45.88 67.4336 46.2C67.4336 46.56 67.5736 46.848 67.8536 47.064C68.1336 47.28 68.5256 47.388 69.0296 47.388C69.5096 47.388 69.9216 47.28 70.2656 47.064C70.6176 46.84 70.8736 46.52 71.0336 46.104L71.2256 46.692C71.0656 47.108 70.7856 47.44 70.3856 47.688C69.9936 47.936 69.4976 48.06 68.8976 48.06ZM76.1917 48.06C75.5997 48.06 75.1437 47.9 74.8237 47.58C74.5037 47.26 74.3437 46.808 74.3437 46.224V40.308H75.1957V46.176C75.1957 46.544 75.2877 46.828 75.4717 47.028C75.6637 47.228 75.9357 47.328 76.2877 47.328C76.6637 47.328 76.9757 47.22 77.2237 47.004L77.5237 47.616C77.3557 47.768 77.1517 47.88 76.9117 47.952C76.6797 48.024 76.4397 48.06 76.1917 48.06ZM73.2157 42.408V41.7H77.1157V42.408H73.2157ZM81.5281 48.06C80.8721 48.06 80.2961 47.924 79.8001 47.652C79.3041 47.372 78.9161 46.992 78.6361 46.512C78.3561 46.024 78.2161 45.468 78.2161 44.844C78.2161 44.22 78.3481 43.668 78.6121 43.188C78.8841 42.708 79.2521 42.332 79.7161 42.06C80.1881 41.78 80.7161 41.64 81.3001 41.64C81.8921 41.64 82.4161 41.776 82.8721 42.048C83.3361 42.312 83.7001 42.688 83.9641 43.176C84.2281 43.656 84.3601 44.212 84.3601 44.844C84.3601 44.884 84.3561 44.928 84.3481 44.976C84.3481 45.016 84.3481 45.06 84.3481 45.108H78.8641V44.472H83.8921L83.5561 44.724C83.5561 44.268 83.4561 43.864 83.2561 43.512C83.0641 43.152 82.8001 42.872 82.4641 42.672C82.1281 42.472 81.7401 42.372 81.3001 42.372C80.8681 42.372 80.4801 42.472 80.1361 42.672C79.7921 42.872 79.5241 43.152 79.3321 43.512C79.1401 43.872 79.0441 44.284 79.0441 44.748V44.88C79.0441 45.36 79.1481 45.784 79.3561 46.152C79.5721 46.512 79.8681 46.796 80.2441 47.004C80.6281 47.204 81.0641 47.304 81.5521 47.304C81.9361 47.304 82.2921 47.236 82.6201 47.1C82.9561 46.964 83.2441 46.756 83.4841 46.476L83.9641 47.028C83.6841 47.364 83.3321 47.62 82.9081 47.796C82.4921 47.972 82.0321 48.06 81.5281 48.06ZM88.5149 48V47.388L92.0069 43.968C92.3269 43.656 92.5669 43.384 92.7269 43.152C92.8869 42.912 92.9949 42.688 93.0509 42.48C93.1069 42.272 93.1349 42.076 93.1349 41.892C93.1349 41.404 92.9669 41.02 92.6309 40.74C92.3029 40.46 91.8149 40.32 91.1669 40.32C90.6709 40.32 90.2309 40.396 89.8469 40.548C89.4709 40.7 89.1469 40.936 88.8749 41.256L88.2629 40.728C88.5909 40.344 89.0109 40.048 89.5229 39.84C90.0349 39.632 90.6069 39.528 91.2389 39.528C91.8069 39.528 92.2989 39.62 92.7149 39.804C93.1309 39.98 93.4509 40.24 93.6749 40.584C93.9069 40.928 94.0229 41.332 94.0229 41.796C94.0229 42.068 93.9829 42.336 93.9029 42.6C93.8309 42.864 93.6949 43.144 93.4949 43.44C93.3029 43.728 93.0189 44.056 92.6429 44.424L89.4389 47.568L89.1989 47.232H94.4069V48H88.5149ZM98.1072 39.528C98.8512 39.528 99.4792 39.696 99.9912 40.032C100.503 40.36 100.891 40.836 101.155 41.46C101.419 42.084 101.551 42.84 101.551 43.728C101.551 44.672 101.387 45.468 101.059 46.116C100.739 46.764 100.291 47.252 99.7152 47.58C99.1392 47.908 98.4712 48.072 97.7112 48.072C97.3352 48.072 96.9752 48.036 96.6312 47.964C96.2952 47.892 95.9912 47.776 95.7192 47.616L96.0672 46.92C96.2832 47.064 96.5312 47.168 96.8112 47.232C97.0992 47.288 97.3952 47.316 97.6992 47.316C98.6032 47.316 99.3232 47.028 99.8592 46.452C100.403 45.876 100.675 45.016 100.675 43.872C100.675 43.688 100.663 43.468 100.639 43.212C100.623 42.956 100.579 42.7 100.507 42.444L100.807 42.672C100.727 43.088 100.555 43.444 100.291 43.74C100.035 44.028 99.7152 44.248 99.3312 44.4C98.9552 44.552 98.5352 44.628 98.0712 44.628C97.5192 44.628 97.0272 44.524 96.5952 44.316C96.1712 44.108 95.8392 43.816 95.5992 43.44C95.3592 43.064 95.2392 42.62 95.2392 42.108C95.2392 41.58 95.3632 41.124 95.6112 40.74C95.8592 40.356 96.1992 40.06 96.6312 39.852C97.0712 39.636 97.5632 39.528 98.1072 39.528ZM98.1432 40.26C97.7432 40.26 97.3872 40.336 97.0752 40.488C96.7712 40.632 96.5312 40.84 96.3552 41.112C96.1792 41.384 96.0912 41.708 96.0912 42.084C96.0912 42.636 96.2792 43.076 96.6552 43.404C97.0392 43.732 97.5552 43.896 98.2032 43.896C98.6352 43.896 99.0112 43.816 99.3312 43.656C99.6592 43.496 99.9112 43.276 100.087 42.996C100.271 42.716 100.363 42.404 100.363 42.06C100.363 41.748 100.279 41.456 100.111 41.184C99.9432 40.912 99.6952 40.692 99.3672 40.524C99.0392 40.348 98.6312 40.26 98.1432 40.26ZM101.645 49.2L105.605 37.896H106.385L102.425 49.2H101.645ZM109.702 48.072C109.054 48.072 108.478 47.904 107.974 47.568C107.47 47.224 107.074 46.736 106.786 46.104C106.498 45.464 106.354 44.696 106.354 43.8C106.354 42.904 106.498 42.14 106.786 41.508C107.074 40.868 107.47 40.38 107.974 40.044C108.478 39.7 109.054 39.528 109.702 39.528C110.35 39.528 110.926 39.7 111.43 40.044C111.934 40.38 112.33 40.868 112.618 41.508C112.914 42.14 113.062 42.904 113.062 43.8C113.062 44.696 112.914 45.464 112.618 46.104C112.33 46.736 111.934 47.224 111.43 47.568C110.926 47.904 110.35 48.072 109.702 48.072ZM109.702 47.28C110.198 47.28 110.63 47.148 110.998 46.884C111.366 46.612 111.654 46.22 111.862 45.708C112.07 45.188 112.174 44.552 112.174 43.8C112.174 43.048 112.07 42.416 111.862 41.904C111.654 41.384 111.366 40.992 110.998 40.728C110.63 40.456 110.198 40.32 109.702 40.32C109.222 40.32 108.794 40.456 108.418 40.728C108.042 40.992 107.75 41.384 107.542 41.904C107.334 42.416 107.23 43.048 107.23 43.8C107.23 44.552 107.334 45.188 107.542 45.708C107.75 46.22 108.042 46.612 108.418 46.884C108.794 47.148 109.222 47.28 109.702 47.28ZM114.144 48V47.388L117.636 43.968C117.956 43.656 118.196 43.384 118.356 43.152C118.516 42.912 118.624 42.688 118.68 42.48C118.736 42.272 118.764 42.076 118.764 41.892C118.764 41.404 118.596 41.02 118.26 40.74C117.932 40.46 117.444 40.32 116.796 40.32C116.3 40.32 115.86 40.396 115.476 40.548C115.1 40.7 114.776 40.936 114.504 41.256L113.892 40.728C114.22 40.344 114.64 40.048 115.152 39.84C115.664 39.632 116.236 39.528 116.868 39.528C117.436 39.528 117.928 39.62 118.344 39.804C118.76 39.98 119.08 40.24 119.304 40.584C119.536 40.928 119.652 41.332 119.652 41.796C119.652 42.068 119.612 42.336 119.532 42.6C119.46 42.864 119.324 43.144 119.124 43.44C118.932 43.728 118.648 44.056 118.272 44.424L115.068 47.568L114.828 47.232H120.036V48H114.144ZM120.313 49.2L124.273 37.896H125.053L121.093 49.2H120.313ZM125.101 48V47.388L128.593 43.968C128.913 43.656 129.153 43.384 129.313 43.152C129.473 42.912 129.581 42.688 129.637 42.48C129.693 42.272 129.721 42.076 129.721 41.892C129.721 41.404 129.553 41.02 129.217 40.74C128.889 40.46 128.401 40.32 127.753 40.32C127.257 40.32 126.817 40.396 126.433 40.548C126.057 40.7 125.733 40.936 125.461 41.256L124.849 40.728C125.177 40.344 125.597 40.048 126.109 39.84C126.621 39.632 127.193 39.528 127.825 39.528C128.393 39.528 128.885 39.62 129.301 39.804C129.717 39.98 130.037 40.24 130.261 40.584C130.493 40.928 130.609 41.332 130.609 41.796C130.609 42.068 130.569 42.336 130.489 42.6C130.417 42.864 130.281 43.144 130.081 43.44C129.889 43.728 129.605 44.056 129.229 44.424L126.025 47.568L125.785 47.232H130.993V48H125.101ZM131.921 48V47.388L135.413 43.968C135.733 43.656 135.973 43.384 136.133 43.152C136.293 42.912 136.401 42.688 136.457 42.48C136.513 42.272 136.541 42.076 136.541 41.892C136.541 41.404 136.373 41.02 136.037 40.74C135.709 40.46 135.221 40.32 134.573 40.32C134.077 40.32 133.637 40.396 133.253 40.548C132.877 40.7 132.553 40.936 132.281 41.256L131.669 40.728C131.997 40.344 132.417 40.048 132.929 39.84C133.441 39.632 134.013 39.528 134.645 39.528C135.213 39.528 135.705 39.62 136.121 39.804C136.537 39.98 136.857 40.24 137.081 40.584C137.313 40.928 137.429 41.332 137.429 41.796C137.429 42.068 137.389 42.336 137.309 42.6C137.237 42.864 137.101 43.144 136.901 43.44C136.709 43.728 136.425 44.056 136.049 44.424L132.845 47.568L132.605 47.232H137.813V48H131.921Z" fill="white"/>
<rect x="242.5" y="16.5" width="88" height="27" rx="3.5" stroke="white"/>
<path d="M256.106 34L252.434 25.6H254.126L257.402 33.196H256.43L259.742 25.6H261.302L257.642 34H256.106ZM262.103 34V27.592H263.603V34H262.103ZM262.859 26.536C262.579 26.536 262.347 26.448 262.163 26.272C261.987 26.096 261.899 25.884 261.899 25.636C261.899 25.38 261.987 25.168 262.163 25C262.347 24.824 262.579 24.736 262.859 24.736C263.139 24.736 263.367 24.82 263.543 24.988C263.727 25.148 263.819 25.352 263.819 25.6C263.819 25.864 263.731 26.088 263.555 26.272C263.379 26.448 263.147 26.536 262.859 26.536ZM268.584 34.084C267.872 34.084 267.248 33.944 266.712 33.664C266.184 33.376 265.772 32.984 265.476 32.488C265.188 31.992 265.044 31.428 265.044 30.796C265.044 30.156 265.184 29.592 265.464 29.104C265.752 28.608 266.144 28.22 266.64 27.94C267.144 27.66 267.716 27.52 268.356 27.52C268.98 27.52 269.536 27.656 270.024 27.928C270.512 28.2 270.896 28.584 271.176 29.08C271.456 29.576 271.596 30.16 271.596 30.832C271.596 30.896 271.592 30.968 271.584 31.048C271.584 31.128 271.58 31.204 271.572 31.276H266.232V30.28H270.78L270.192 30.592C270.2 30.224 270.124 29.9 269.964 29.62C269.804 29.34 269.584 29.12 269.304 28.96C269.032 28.8 268.716 28.72 268.356 28.72C267.988 28.72 267.664 28.8 267.384 28.96C267.112 29.12 266.896 29.344 266.736 29.632C266.584 29.912 266.508 30.244 266.508 30.628V30.868C266.508 31.252 266.596 31.592 266.772 31.888C266.948 32.184 267.196 32.412 267.516 32.572C267.836 32.732 268.204 32.812 268.62 32.812C268.98 32.812 269.304 32.756 269.592 32.644C269.88 32.532 270.136 32.356 270.36 32.116L271.164 33.04C270.876 33.376 270.512 33.636 270.072 33.82C269.64 33.996 269.144 34.084 268.584 34.084ZM274.336 34L271.984 27.592H273.4L275.416 33.244H274.744L276.856 27.592H278.116L280.168 33.244H279.508L281.584 27.592H282.916L280.552 34H279.112L277.24 28.996H277.684L275.776 34H274.336ZM291.211 34V32.704L291.127 32.428V30.16C291.127 29.72 290.995 29.38 290.731 29.14C290.467 28.892 290.067 28.768 289.531 28.768C289.171 28.768 288.815 28.824 288.463 28.936C288.119 29.048 287.827 29.204 287.587 29.404L286.999 28.312C287.343 28.048 287.751 27.852 288.223 27.724C288.703 27.588 289.199 27.52 289.711 27.52C290.639 27.52 291.355 27.744 291.859 28.192C292.371 28.632 292.627 29.316 292.627 30.244V34H291.211ZM289.195 34.084C288.715 34.084 288.295 34.004 287.935 33.844C287.575 33.676 287.295 33.448 287.095 33.16C286.903 32.864 286.807 32.532 286.807 32.164C286.807 31.804 286.891 31.48 287.059 31.192C287.235 30.904 287.519 30.676 287.911 30.508C288.303 30.34 288.823 30.256 289.471 30.256H291.331V31.252H289.579C289.067 31.252 288.723 31.336 288.547 31.504C288.371 31.664 288.283 31.864 288.283 32.104C288.283 32.376 288.391 32.592 288.607 32.752C288.823 32.912 289.123 32.992 289.507 32.992C289.875 32.992 290.203 32.908 290.491 32.74C290.787 32.572 290.999 32.324 291.127 31.996L291.379 32.896C291.235 33.272 290.975 33.564 290.599 33.772C290.231 33.98 289.763 34.084 289.195 34.084ZM294.552 34V25.096H296.052V34H294.552ZM298.021 34V25.096H299.521V34H298.021Z" fill="white"/>
<g clip-path="url(#clip1_1_17072)">
<path d="M315 25.3334L314.06 26.2734L317.113 29.3334H306.333V30.6667H317.113L314.053 33.7267L315 34.6667L319.667 30L315 25.3334Z" fill="white"/>
</g>
<defs>
<clipPath id="clip0_1_17072">
<rect width="16" height="16" fill="white" transform="translate(8 36)"/>
</clipPath>
<clipPath id="clip1_1_17072">
<rect width="16" height="16" fill="white" transform="translate(305 22)"/>
</clipPath>
</defs>
</svg>
